<?xml version="1.0" standalone="no"?>
<!DOCTYPE svg PUBLIC "-//W3C//DTD SVG 1.1//EN" "http://www.w3.org/Graphics/SVG/1.1/DTD/svg11.dtd" >
<svg xmlns="http://www.w3.org/2000/svg">
<metadata>Generated by IcoMoon</metadata>
<defs>
<font id="BTVodoma" horiz-adv-x="1024">
<font-face units-per-em="1024" ascent="972.8" descent="-51.2" />
<missing-glyph horiz-adv-x="1024" />
<glyph unicode="&#x20;" horiz-adv-x="409.6" d="" />
<glyph unicode="&#xe602;" glyph-name="icons-03" d="M803.2 576v0c11.2 0 19.2 11.2 14.4 22.4-46.4 118.4-160 203.2-289.6 209.6-9.6 0-16-6.4-16-16v0c0-8 6.4-16 16-16 116.8-6.4 219.2-83.2 260.8-190.4 1.6-4.8 8-9.6 14.4-9.6zM512 960c-283.2 0-512-228.8-512-512v-256c0-52.8 43.2-96 96-96h48c52.8 0 96 43.2 96 96v160c0 52.8-43.2 96-96 96h-80c0 248 200 448 448 448 240 0 441.6-200 441.6-448h-80c-52.8 0-89.6-43.2-89.6-96v-160c0-17.6 3.2-32 11.2-46.4-57.6-44.8-129.6-86.4-209.6-102.4-11.2 30.4-40 52.8-75.2 52.8-44.8 0-80-35.2-80-80s35.2-80 80-80c36.8 0 67.2 24 76.8 57.6 91.2 16 172.8 60.8 238.4 116.8 12.8-9.6 30.4-14.4 48-14.4h48c52.8 0 102.4 43.2 102.4 96v256c0 283.2-240 512-512 512zM96 384h48c17.6 0 32-14.4 32-32v-160c0-17.6-14.4-32-32-32h-48c-17.6 0-32 14.4-32 32v160c0 17.6 14.4 32 32 32zM960 192c0-17.6-14.4-32-32-32h-48c-17.6 0-32 14.4-32 32v160c0 17.6 14.4 32 32 32h48c17.6 0 32-14.4 32-32v-160z" />
<glyph unicode="&#xe60b;" glyph-name="icons-12" d="M1014.4 478.4c-12.8 12.8-32 12.8-44.8 0l-25.6-30.4c0 0 0 0 0 0 0 260.8-212.8 472-472 472-260.8 0-472-211.2-472-472s211.2-472 472-472c164.8 0 313.6 83.2 400 222.4 9.6 14.4 4.8 35.2-9.6 44.8s-35.2 4.8-44.8-9.6c-75.2-121.6-204.8-193.6-345.6-193.6-225.6 0-408 182.4-408 408s182.4 408 408 408c224 0 406.4-182.4 408-406.4l-24 30.4c-12.8 12.8-32 12.8-44.8 0s-12.8-32 0-44.8c0 0 0 0 0 0l80-84.8c0 0 0 0 0 0 11.2-11.2 27.2-12.8 40-4.8 1.6 1.6 4.8 3.2 6.4 4.8l80 84.8c9.6 11.2 9.6 30.4-3.2 43.2zM347.2 468.8c-6.4-8-17.6-20.8-36.8-41.6l-67.2-67.2v-48h198.4v60.8h-104v1.6c30.4 27.2 49.6 46.4 59.2 56s16 19.2 22.4 27.2c6.4 9.6 9.6 17.6 12.8 27.2s4.8 19.2 4.8 30.4c0 14.4-3.2 27.2-11.2 38.4s-19.2 20.8-32 27.2c-14.4 6.4-30.4 9.6-48 9.6-14.4 0-27.2-1.6-38.4-4.8s-22.4-6.4-32-12.8c-9.6-4.8-20.8-14.4-35.2-27.2l40-48c11.2 9.6 20.8 17.6 30.4 22.4s17.6 8 25.6 8c8 0 14.4-1.6 19.2-6.4s6.4-9.6 6.4-17.6c0-6.4-1.6-11.2-3.2-16s-4.8-11.2-11.2-19.2zM662.4 312v52.8h30.4v56h-30.4v164.8h-68.8l-113.6-166.4v-54.4h108.8v-52.8h73.6zM544 420.8l30.4 44.8c4.8 8 9.6 17.6 14.4 27.2h1.6c0 0 0-6.4-1.6-16 0-9.6 0-17.6 0-24v-32h-44.8z" />
<glyph unicode="&#xe800;" glyph-name="home" d="M1017.382 349.974l-452.050 499.634c-14.051 15.533-32.992 24.086-53.333 24.086-0.002 0 0 0 0 0-20.339 0-39.282-8.555-53.334-24.086l-452.050-499.634c-9.485-10.485-8.675-26.674 1.808-36.158 4.899-4.432 11.043-6.616 17.168-6.616 6.982 0 13.938 2.838 18.992 8.426l109.016 120.491v-410.517c0-42.347 34.453-76.8 76.8-76.8h563.2c42.347 0 76.8 34.453 76.8 76.8v410.517l109.018-120.493c9.485-10.483 25.674-11.296 36.158-1.808 10.483 9.485 11.293 25.675 1.806 36.158zM614.4 0h-204.8v230.4c0 14.115 11.485 25.6 25.6 25.6h153.6c14.115 0 25.6-11.485 25.6-25.6v-230.4zM819.2 25.6c0-14.115-11.485-25.6-25.6-25.6h-128v230.4c0 42.349-34.451 76.8-76.8 76.8h-153.6c-42.347 0-76.8-34.451-76.8-76.8v-230.4h-128c-14.115 0-25.6 11.485-25.6 25.6v467.106l291.832 322.552c4.222 4.667 9.68 7.237 15.368 7.237s11.146-2.57 15.366-7.235l291.834-322.552v-467.107z" />
<glyph unicode="&#xe802;" glyph-name="pencil" d="M978.101 926.902c-28.77 28.768-67.018 44.611-107.701 44.611-40.685 0-78.933-15.843-107.701-44.611l-652.8-652.8c-2.645-2.645-4.678-5.837-5.957-9.354l-102.4-281.6c-3.4-9.347-1.077-19.818 5.957-26.85 4.885-4.888 11.43-7.499 18.104-7.499 2.933 0 5.891 0.502 8.744 1.541l281.6 102.4c3.515 1.28 6.709 3.312 9.354 5.958l652.8 652.8c28.768 28.768 44.613 67.018 44.613 107.702s-15.843 78.933-44.613 107.701zM293.114 98.917l-224.709-81.71 81.712 224.707 566.683 566.683 142.997-142.997-566.683-566.683zM941.899 747.702l-45.899-45.899-142.997 142.997 45.899 45.899c19.098 19.098 44.49 29.614 71.498 29.614s52.4-10.518 71.499-29.616c19.098-19.098 29.616-44.49 29.616-71.498s-10.52-52.4-29.616-71.498z" />
<glyph unicode="&#xe811;" glyph-name="trash" d="M793.6 870.4h-179.2v25.6c0 42.347-34.453 76.8-76.8 76.8h-102.4c-42.347 0-76.8-34.453-76.8-76.8v-25.6h-179.2c-42.347 0-76.8-34.453-76.8-76.8v-51.2c0-33.373 21.403-61.829 51.2-72.397v-644.403c0-42.349 34.453-76.8 76.8-76.8h512c42.349 0 76.8 34.451 76.8 76.8v644.403c29.797 10.568 51.2 39.024 51.2 72.397v51.2c0 42.347-34.451 76.8-76.8 76.8zM409.6 896c0 14.115 11.485 25.6 25.6 25.6h102.4c14.115 0 25.6-11.485 25.6-25.6v-25.6h-153.6v25.6zM742.4 0h-512c-14.115 0-25.6 11.485-25.6 25.6v640h563.2v-640c0-14.115-11.485-25.6-25.6-25.6zM819.2 742.4c0-14.115-11.485-25.6-25.6-25.6h-614.4c-14.115 0-25.6 11.485-25.6 25.6v51.2c0 14.115 11.485 25.6 25.6 25.6h614.4c14.115 0 25.6-11.485 25.6-25.6v-51.2zM640 614.4c-14.139 0-25.6-11.462-25.6-25.6v-512c0-14.139 11.461-25.6 25.6-25.6s25.6 11.461 25.6 25.6v512c0 14.138-11.461 25.6-25.6 25.6zM486.4 614.4c-14.138 0-25.6-11.462-25.6-25.6v-512c0-14.139 11.462-25.6 25.6-25.6s25.6 11.461 25.6 25.6v512c0 14.138-11.462 25.6-25.6 25.6zM332.8 614.4c-14.138 0-25.6-11.462-25.6-25.6v-512c0-14.139 11.462-25.6 25.6-25.6s25.6 11.461 25.6 25.6v512c0 14.138-11.462 25.6-25.6 25.6z" />
<glyph unicode="&#xe813;" glyph-name="heart" d="M486.4 0c-4.283 0-8.566 1.074-12.434 3.222-4.808 2.67-119.088 66.624-235.122 171.376-68.643 61.97-123.467 125.363-162.944 188.418-50.365 80.443-75.901 160.715-75.901 238.584 0 148.218 120.582 268.8 268.8 268.8 50.173 0 103.462-18.805 150.051-52.952 27.251-19.973 50.442-44.043 67.549-69.606 17.107 25.565 40.299 49.634 67.55 69.606 46.589 34.147 99.878 52.952 150.050 52.952 148.218 0 268.8-120.582 268.8-268.8 0-77.869-25.538-158.141-75.901-238.584-39.478-63.054-94.301-126.446-162.944-188.418-116.034-104.754-230.314-168.706-235.122-171.376-3.867-2.149-8.15-3.222-12.434-3.222zM268.8 819.2c-119.986 0-217.6-97.614-217.6-217.6 0-155.624 120.302-297.077 221.224-388.338 90.131-81.504 181.44-138.658 213.976-158.042 32.536 19.384 123.845 76.538 213.976 158.042 100.922 91.261 221.224 232.714 221.224 388.338 0 119.986-97.616 217.6-217.6 217.6-87.187 0-171.856-71.725-193.314-136.096-3.485-10.453-13.267-17.504-24.286-17.504s-20.802 7.051-24.286 17.504c-21.456 64.371-106.125 136.096-193.314 136.096z" />
<glyph unicode="&#xe818;" glyph-name="envelope" d="M896 665.6h-819.2c-42.347 0-76.8-34.453-76.8-76.8v-460.8c0-42.349 34.453-76.8 76.8-76.8h819.2c42.349 0 76.8 34.451 76.8 76.8v460.8c0 42.347-34.451 76.8-76.8 76.8zM896 614.4c1.514 0 2.99-0.158 4.434-0.411l-385.632-257.090c-14.862-9.907-41.938-9.907-56.802 0l-385.634 257.090c1.443 0.253 2.92 0.411 4.434 0.411h819.2zM896 102.4h-819.2c-14.115 0-25.6 11.485-25.6 25.6v438.566l378.4-252.267c15.925-10.618 36.363-15.925 56.8-15.925s40.877 5.307 56.802 15.925l378.398 252.267v-438.566c0-14.115-11.485-25.6-25.6-25.6z" />
<glyph unicode="&#xe81b;" glyph-name="eye" d="M1017.429 452.326c-2.429 2.698-60.515 66.826-151.349 131.706-53.587 38.277-107.499 68.826-160.234 90.8-66.837 27.848-132.056 41.968-193.846 41.968s-127.010-14.12-193.846-41.97c-52.736-21.973-106.646-52.523-160.234-90.8-90.832-64.878-148.92-129.006-151.349-131.704-8.763-9.736-8.763-24.515 0-34.251 2.429-2.699 60.517-66.827 151.349-131.707 53.587-38.277 107.498-68.827 160.234-90.8 66.837-27.848 132.056-41.968 193.846-41.968s127.010 14.12 193.846 41.968c52.734 21.973 106.645 52.523 160.234 90.8 90.834 64.88 148.92 129.008 151.349 131.706 8.762 9.736 8.762 24.517 0 34.253zM643.789 643.157c46.458-39.074 73.011-95.923 73.011-156.757 0-112.926-91.874-204.8-204.8-204.8-112.928 0-204.8 91.874-204.8 204.8 0 60.835 26.554 117.685 73.014 156.757 42.107 13.744 86.602 22.443 131.786 22.443 45.186 0 89.682-8.699 131.789-22.443zM835.418 327.387c-78.488-55.925-198.309-122.587-323.418-122.587s-244.93 66.662-323.416 122.587c-59.24 42.21-104.574 84.89-127.458 107.813 22.888 22.928 68.222 65.606 127.458 107.813 27.13 19.331 59.2 39.942 94.72 58.643-17.766-35.224-27.304-74.52-27.304-115.256 0-141.16 114.842-256 256-256 141.16 0 256 114.84 256 256 0 40.734-9.538 80.032-27.301 115.256 35.517-18.701 67.589-39.312 94.718-58.643 59.238-42.21 104.573-84.89 127.456-107.813-22.888-22.928-68.222-65.606-127.456-107.813z" />
<glyph unicode="&#xe81f;" glyph-name="enter" d="M896 870.4h-460.8c-42.347 0-76.8-34.453-76.8-76.8v-153.6c0-14.138 11.462-25.6 25.6-25.6s25.6 11.462 25.6 25.6v153.6c0 14.115 11.485 25.6 25.6 25.6h387.278l-196.702-84.301c-35.088-15.038-62.576-56.723-62.576-94.899v-486.4h-128c-14.115 0-25.6 11.485-25.6 25.6v153.6c0 14.139-11.462 25.6-25.6 25.6s-25.6-11.461-25.6-25.6v-153.6c0-42.347 34.453-76.8 76.8-76.8h128v-76.8c0-22.181 9.234-40.99 25.331-51.606 8.886-5.861 19.243-8.814 30.171-8.814 8.867 0 18.109 1.946 27.242 5.859l264.277 113.261c35.091 15.038 62.579 56.723 62.579 94.901v614.4c0 42.347-34.451 76.8-76.8 76.8zM921.6 179.2c0-17.963-15.035-40.765-31.546-47.838l-264.277-113.261c-4.912-2.107-8.163-1.955-9.062-1.363-0.894 0.59-2.315 3.518-2.315 8.862v614.4c0 17.962 15.035 40.763 31.546 47.838l273.043 117.019c1.672-3.4 2.611-7.221 2.611-11.258v-614.4zM427.701 504.501l-153.6 153.6c-9.997 9.998-26.206 9.998-36.203 0s-9.998-26.206 0-36.203l109.899-109.898h-322.197c-14.138 0-25.6-11.462-25.6-25.6s11.462-25.6 25.6-25.6h322.197l-109.898-109.899c-9.998-9.997-9.998-26.206 0-36.203 4.998-4.998 11.549-7.498 18.101-7.498s13.102 2.499 18.101 7.499l153.6 153.6c9.998 9.997 9.998 26.205 0 36.202z" />
<glyph unicode="&#xe820;" glyph-name="exit" d="M588.8 563.2c14.139 0 25.6 11.462 25.6 25.6v204.8c0 42.347-34.451 76.8-76.8 76.8h-460.8c-42.347 0-76.8-34.453-76.8-76.8v-614.4c0-38.178 27.488-79.862 62.576-94.899l264.278-113.262c9.134-3.915 18.373-5.859 27.24-5.859 10.926 0.002 21.288 2.955 30.173 8.814 16.099 10.616 25.333 29.426 25.333 51.606v76.8h128c42.349 0 76.8 34.451 76.8 76.8v204.8c0 14.139-11.461 25.6-25.6 25.6s-25.6-11.461-25.6-25.6v-204.8c0-14.115-11.485-25.6-25.6-25.6h-128v486.4c0 38.176-27.488 79.861-62.576 94.899l-196.702 84.301h387.278c14.115 0 25.6-11.485 25.6-25.6v-204.8c0-14.138 11.461-25.6 25.6-25.6zM326.854 687.838c16.51-7.075 31.546-29.877 31.546-47.838v-614.4c0-5.344-1.421-8.272-2.317-8.862-0.898-0.589-4.15-0.742-9.061 1.362l-264.278 113.262c-16.509 7.074-31.544 29.875-31.544 47.838v614.4c0 4.037 0.939 7.859 2.611 11.258l273.043-117.019zM939.701 504.501l-153.6 153.6c-9.997 9.998-26.206 9.998-36.203 0-9.998-9.997-9.998-26.206 0-36.203l109.899-109.898h-322.197c-14.139 0-25.6-11.462-25.6-25.6s11.461-25.6 25.6-25.6h322.197l-109.899-109.899c-9.998-9.997-9.998-26.206 0-36.203 5-4.998 11.55-7.498 18.102-7.498s13.102 2.499 18.101 7.499l153.6 153.6c9.998 9.997 9.998 26.205 0 36.202z" />
<glyph unicode="&#xe824;" glyph-name="film-play" d="M383.997 204.8c-3.902 0-7.822 0.891-11.445 2.702-8.674 4.336-14.152 13.2-14.152 22.898v460.8c0 9.698 5.478 18.562 14.152 22.898 8.67 4.334 19.051 3.4 26.808-2.418l307.2-230.4c6.446-4.834 10.24-12.422 10.24-20.48s-3.794-15.645-10.24-20.48l-307.2-230.4c-4.517-3.387-9.923-5.12-15.363-5.12zM409.6 640v-358.4l238.933 179.2-238.933 179.2zM998.4 870.4h-972.8c-14.138 0-25.6-11.462-25.6-25.6v-768c0-14.139 11.462-25.6 25.6-25.6h972.8c14.139 0 25.6 11.461 25.6 25.6v768c0 14.138-11.461 25.6-25.6 25.6zM153.6 409.6h-102.4v102.4h102.4v-102.4zM153.6 563.2h-102.4v102.4h102.4v-102.4zM51.2 358.4h102.4v-102.4h-102.4v102.4zM204.8 819.2h614.4v-716.8h-614.4v716.8zM870.4 512h102.4v-102.4h-102.4v102.4zM870.4 563.2v102.4h102.4v-102.4h-102.4zM870.4 358.4h102.4v-102.4h-102.4v102.4zM972.8 716.8h-102.4v102.4h102.4v-102.4zM153.6 819.2v-102.4h-102.4v102.4h102.4zM51.2 204.8h102.4v-102.4h-102.4v102.4zM870.4 102.4v102.4h102.4v-102.4h-102.4z" />
<glyph unicode="&#xe825;" glyph-name="camera-video" d="M979.496 99.669c-0.003 0-0.005 0-0.008 0-12.378 0.002-24.846 4.957-37.059 14.725l-176.038 140.832c-28.272 22.613-49.59 66.97-49.59 103.174v153.6c0 36.203 21.318 80.56 49.589 103.174l176.037 140.83c12.216 9.773 24.686 14.726 37.066 14.726 22.155 0.002 44.509-16.675 44.509-53.931v-563.2c0-14.234-3.275-26.197-9.733-35.558-8.056-11.675-20.73-18.373-34.771-18.373zM972.8 714.736l-174.427-139.542c-15.896-12.717-30.373-42.837-30.373-63.194v-153.6c0-20.358 14.477-50.478 30.371-63.194l174.429-139.542v559.072zM588.8 102.4h-512c-42.347 0-76.8 34.453-76.8 76.8v512c0 42.347 34.453 76.8 76.8 76.8h512c42.347 0 76.8-34.453 76.8-76.8v-512c0-42.347-34.453-76.8-76.8-76.8zM76.8 716.8c-14.115 0-25.6-11.485-25.6-25.6v-512c0-14.115 11.485-25.6 25.6-25.6h512c14.115 0 25.6 11.485 25.6 25.6v512c0 14.115-11.485 25.6-25.6 25.6h-512z" />
<glyph unicode="&#xe827;" glyph-name="picture" d="M947.2-51.2h-870.4c-42.347 0-76.8 34.451-76.8 76.8v870.4c0 42.347 34.453 76.8 76.8 76.8h870.4c42.349 0 76.8-34.453 76.8-76.8v-870.4c0-42.349-34.451-76.8-76.8-76.8zM76.8 921.6c-14.115 0-25.6-11.485-25.6-25.6v-870.4c0-14.115 11.485-25.6 25.6-25.6h870.4c14.115 0 25.6 11.485 25.6 25.6v870.4c0 14.115-11.485 25.6-25.6 25.6h-870.4zM665.6 512c-56.464 0-102.4 45.936-102.4 102.4s45.936 102.4 102.4 102.4 102.4-45.936 102.4-102.4-45.936-102.4-102.4-102.4zM665.6 665.6c-28.232 0-51.2-22.968-51.2-51.2s22.968-51.2 51.2-51.2 51.2 22.968 51.2 51.2-22.968 51.2-51.2 51.2zM896 870.4h-768c-14.138 0-25.6-11.462-25.6-25.6v-614.4c0-14.139 11.462-25.6 25.6-25.6h768c14.139 0 25.6 11.461 25.6 25.6v614.4c0 14.138-11.461 25.6-25.6 25.6zM153.6 374.267l164.318 184.858c4.203 4.728 9.694 7.371 15.462 7.44 5.725 0.090 11.322-2.438 15.638-7.062l283.27-303.502h-478.69v118.267zM870.4 256h-168.075l-315.875 338.437c-14.269 15.288-33.312 23.605-53.691 23.325-20.354-0.246-39.214-8.992-53.107-24.621l-126.051-141.808v367.867h716.8v-563.2z" />
<glyph unicode="&#xe82a;" glyph-name="user" d="M486.4 409.6c-155.275 0-281.6 126.325-281.6 281.6s126.325 281.6 281.6 281.6 281.6-126.325 281.6-281.6-126.325-281.6-281.6-281.6zM486.4 921.6c-127.043 0-230.4-103.357-230.4-230.4s103.357-230.4 230.4-230.4c127.042 0 230.4 103.357 230.4 230.4s-103.358 230.4-230.4 230.4zM896-51.2h-819.2c-42.347 0-76.8 34.451-76.8 76.8 0 3.485 0.712 86.285 62.72 168.96 36.094 48.126 85.514 86.36 146.883 113.634 74.957 33.314 168.085 50.206 276.797 50.206 108.71 0 201.838-16.893 276.797-50.206 61.37-27.275 110.789-65.507 146.883-113.634 62.008-82.675 62.72-165.475 62.72-168.96 0-42.349-34.451-76.8-76.8-76.8zM486.4 307.2c-178.52 0-310.267-48.789-381-141.093-53.011-69.174-54.195-139.904-54.2-140.61 0-14.013 11.485-25.498 25.6-25.498h819.2c14.115 0 25.6 11.485 25.6 25.6-0.006 0.603-1.189 71.333-54.198 140.507-70.734 92.304-202.483 141.093-381.002 141.093z" />
<glyph unicode="&#xe82b;" glyph-name="users" d="M947.2 51.2h-563.2c-42.347 0-76.8 34.453-76.8 76.8 0 2.461 0.538 60.952 47.331 118.544 26.883 33.088 63.541 59.31 108.952 77.941 54.856 22.504 122.858 33.915 202.117 33.915s147.261-11.411 202.117-33.915c45.411-18.63 82.067-44.853 108.952-77.941 46.794-57.592 47.331-116.083 47.331-118.544 0-42.347-34.453-76.8-76.8-76.8zM358.4 127.869c0.072-14.056 11.528-25.469 25.6-25.469h563.2c14.072 0 25.528 11.413 25.6 25.469-0.048 1.786-1.656 45.802-37.851 88.786-49.88 59.235-143.019 90.546-269.349 90.546s-219.469-31.31-269.349-90.546c-36.194-42.984-37.803-87-37.851-88.786zM665.6 409.6c-112.926 0-204.8 91.874-204.8 204.8 0 112.928 91.874 204.8 204.8 204.8s204.8-91.872 204.8-204.8c0-112.926-91.874-204.8-204.8-204.8zM665.6 768c-84.696 0-153.6-68.904-153.6-153.6s68.904-153.6 153.6-153.6 153.6 68.904 153.6 153.6-68.904 153.6-153.6 153.6zM230.4 51.2h-153.6c-42.347 0-76.8 34.451-76.8 76.8 0 1.915 0.386 47.446 33.92 92.16 19.373 25.832 45.778 46.299 78.483 60.834 39.126 17.389 87.438 26.206 143.597 26.206 9.16 0 18.232-0.235 26.962-0.701 14.118-0.754 24.954-12.81 24.2-26.928-0.752-14.117-12.781-24.96-26.928-24.2-7.826 0.418-15.979 0.629-24.234 0.629-199.366 0-204.666-121.826-204.8-128.131 0.072-14.054 11.528-25.469 25.6-25.469h153.6c14.138 0 25.6-11.461 25.6-25.6s-11.462-25.6-25.6-25.6zM256 358.4c-84.696 0-153.6 68.904-153.6 153.6s68.904 153.6 153.6 153.6 153.6-68.904 153.6-153.6-68.904-153.6-153.6-153.6zM256 614.4c-56.464 0-102.4-45.936-102.4-102.4s45.936-102.4 102.4-102.4 102.4 45.936 102.4 102.4c0 56.464-45.936 102.4-102.4 102.4z" />
<glyph unicode="&#xe82e;" glyph-name="cart" d="M409.6-51.2c-56.464 0-102.4 45.936-102.4 102.4s45.936 102.4 102.4 102.4 102.4-45.936 102.4-102.4-45.936-102.4-102.4-102.4zM409.6 102.4c-28.232 0-51.2-22.968-51.2-51.2s22.968-51.2 51.2-51.2 51.2 22.968 51.2 51.2-22.968 51.2-51.2 51.2zM768-51.2c-56.464 0-102.4 45.936-102.4 102.4s45.936 102.4 102.4 102.4 102.4-45.936 102.4-102.4-45.936-102.4-102.4-102.4zM768 102.4c-28.232 0-51.2-22.968-51.2-51.2s22.968-51.2 51.2-51.2 51.2 22.968 51.2 51.2-22.968 51.2-51.2 51.2zM898.021 744.112c-12.859 15.181-32.258 23.888-53.221 23.888h-626.846l-5.085 30.506c-6.72 40.315-43.998 71.894-84.869 71.894h-51.2c-14.138 0-25.6-11.462-25.6-25.6s11.462-25.6 25.6-25.6h51.2c15.722 0 31.781-13.603 34.366-29.112l85.566-513.395c6.718-40.314 43.997-71.893 84.867-71.893h512c14.139 0 25.6 11.461 25.6 25.6s-11.461 25.6-25.6 25.6h-512c-15.722 0-31.781 13.603-34.366 29.11l-12.63 75.784 510.206 44.366c39.69 3.451 75.907 36.938 82.458 76.234l34.366 206.194c3.448 20.677-1.952 41.243-14.813 56.424zM862.331 696.106l-34.366-206.194c-2.699-16.186-20.043-32.221-36.39-33.645l-514.214-44.714-50.874 305.246h618.314c5.968 0 10.995-2.054 14.155-5.782 3.157-3.73 4.357-9.024 3.376-14.912z" />
<glyph unicode="&#xe830;" glyph-name="phone-handset" d="M819.2-51.2c-90.691 0-187.154 25.699-286.706 76.386-91.794 46.736-182.48 113.654-262.258 193.522-79.763 79.853-146.595 170.624-193.272 262.498-50.608 99.61-76.269 196.102-76.269 286.795 0 58.774 54.765 115.55 78.31 137.232 33.85 31.17 87.104 67.568 125.794 67.568 19.245 0 41.803-12.589 70.994-39.616 21.782-20.17 46.27-47.51 70.814-79.067 14.794-19.021 88.592-116.267 88.592-162.917 0-38.27-43.25-64.853-89.037-92.998-17.694-10.875-35.992-22.122-49.226-32.73-14.114-11.315-16.645-17.288-17.061-18.629 48.602-121.128 197.141-269.651 318.203-318.184 1.085 0.341 7.067 2.699 18.592 17.075 10.608 13.234 21.854 31.531 32.73 49.227 28.144 45.789 54.726 89.038 92.998 89.038 46.648 0 143.896-73.798 162.917-88.592 31.557-24.546 58.898-49.032 79.067-70.816 27.029-29.189 39.616-51.747 39.616-70.992 0-38.701-36.378-92.115-67.528-126.099-21.693-23.662-78.491-78.701-137.272-78.701zM204.477 921.597c-13.731-0.262-50.634-17.054-90.789-54.029-38.115-35.099-61.792-73.25-61.792-99.568 0-344.523 423.093-768 767.304-768 26.28 0 64.418 23.795 99.528 62.099 37.003 40.366 53.806 77.413 54.069 91.178-1.662 9.728-28.57 47.563-102.232 104.283-63.322 48.762-114.699 74.886-127.901 75.237-0.925-0.274-6.656-2.467-18.277-17.222-10.104-12.832-20.912-30.418-31.366-47.424-28.683-46.666-55.774-90.744-95.122-90.744-6.336 0-12.597 1.219-18.608 3.624-134.376 53.75-293.31 212.685-347.061 347.061-6.456 16.138-7.485 41.414 24.272 70.184 16.882 15.293 40.25 29.656 62.848 43.546 17.006 10.453 34.59 21.261 47.422 31.366 14.755 11.619 16.95 17.352 17.222 18.277-0.352 13.203-26.475 64.579-75.237 127.902-56.72 73.659-94.554 100.568-104.282 102.23z" />
<glyph unicode="&#xe831;" glyph-name="phone" d="M916.19 517.291c-53.283-0.002-149.901 19.214-180.016 49.326-18.466 18.466-22.854 41.64-26.381 60.262-4.344 22.931-6.95 29.755-17.010 34.077-46.194 19.853-112.456 31.238-181.8 31.238-68.621 0-134.16-11.189-179.81-30.699-9.939-4.248-12.499-11.050-16.741-33.938-3.459-18.672-7.765-41.91-26.234-60.381-16.814-16.813-51.976-28.36-78.512-35.086-34.218-8.674-70.85-13.646-100.502-13.646-33.982 0-56.965 6.461-70.258 19.755-20.021 20.019-32.797 47.4-35.050 75.12-1.901 23.365 2.6 57.979 34.824 90.205 52.315 52.315 122.699 93.11 209.195 121.253 79.549 25.882 170.093 39.562 261.842 39.562 92.378 0 183.67-13.848 264.006-40.048 87.304-28.472 158.35-69.688 211.163-122.499 53.766-53.765 40.451-125.102 0.629-164.928-13.173-13.17-35.856-19.571-69.347-19.573zM510.986 743.395c77.157 0 148.901-12.571 202.014-35.398 36.51-15.69 42.632-48 47.099-71.59 2.672-14.104 4.979-26.285 12.28-33.586 12.915-12.914 87.362-34.331 143.811-34.33 24.638 0 32.398 4.219 33.4 4.835 15.851 16.061 35.757 55.621-0.885 92.261-92.392 92.392-256.493 147.552-438.966 147.552-180.973 0-343.526-54.51-434.832-145.818-14.76-14.76-21.488-31.533-19.998-49.853 1.258-15.462 8.72-31.445 19.986-42.827 0.965-0.606 8.846-5 34.291-5 56.242 0 130.12 21.048 142.811 33.738 7.226 7.227 9.482 19.403 12.094 33.502 4.382 23.659 10.386 56.061 46.963 71.691 52.538 22.456 123.541 34.822 199.931 34.822zM844.8 51.2h-665.6c-34.347 0-66.043 13.509-89.248 38.040-23.206 24.531-34.936 56.928-33.032 91.222 0.218 3.928 6.024 97.307 65.029 191.453 34.904 55.694 81.181 100.088 137.541 131.946 69.658 39.374 154.613 59.339 252.51 59.339s182.853-19.965 252.509-59.339c56.363-31.858 102.637-76.251 137.542-131.946 59.005-94.146 64.811-187.525 65.030-191.453 1.904-34.296-9.827-66.691-33.034-91.222s-54.901-38.040-89.248-38.040zM512 512c-159.592 0-275.859-55.696-345.574-165.541-52.726-83.077-58.336-168.038-58.387-168.888-1.114-20.050 5.67-38.942 19.107-53.146s31.923-22.026 52.054-22.026h665.6c20.131 0 38.618 7.822 52.054 22.027 13.435 14.203 20.222 33.096 19.104 53.195-0.046 0.798-5.658 85.762-58.384 168.837-69.715 109.845-185.984 165.541-345.574 165.541zM512 153.6c-84.696 0-153.6 68.904-153.6 153.6s68.904 153.6 153.6 153.6 153.6-68.904 153.6-153.6-68.904-153.6-153.6-153.6zM512 409.6c-56.464 0-102.4-45.936-102.4-102.4s45.936-102.4 102.4-102.4c56.464 0 102.4 45.936 102.4 102.4s-45.936 102.4-102.4 102.4z" />
<glyph unicode="&#xe833;" glyph-name="map-marker" d="M512-51.2c-7.856 0-15.277 3.606-20.13 9.784-2.931 3.73-72.587 92.864-143.229 224.51-41.581 77.491-74.742 153.568-98.565 226.118-30.043 91.499-45.277 177.758-45.277 256.387 0 169.39 137.81 307.2 307.2 307.2s307.2-137.81 307.2-307.2c0-78.629-15.234-164.888-45.278-256.386-23.822-72.55-56.984-148.629-98.565-226.118-70.64-131.646-140.298-220.781-143.229-224.51-4.851-6.179-12.272-9.786-20.128-9.786zM512 921.6c-141.158 0-256-114.842-256-256 0-166.597 74.914-341.176 137.758-458.296 46.186-86.074 92.634-154.306 118.237-189.938 25.709 35.789 72.429 104.432 118.688 190.76 62.643 116.902 137.317 291.163 137.317 457.474 0 141.158-114.84 256-256 256zM512 512c-84.696 0-153.6 68.904-153.6 153.6s68.904 153.6 153.6 153.6 153.6-68.904 153.6-153.6-68.904-153.6-153.6-153.6zM512 768c-56.464 0-102.4-45.936-102.4-102.4s45.936-102.4 102.4-102.4c56.464 0 102.4 45.936 102.4 102.4s-45.936 102.4-102.4 102.4z" />
<glyph unicode="&#xe835;" glyph-name="location" d="M435.202-51.202c-2.205 0-4.435 0.285-6.642 0.878-11.186 3.003-18.96 13.142-18.96 24.723v384h-384c-11.581 0-21.72 7.774-24.723 18.96-3.005 11.184 1.874 22.994 11.898 28.795l972.8 563.2c10.037 5.811 22.726 4.147 30.928-4.053 8.202-8.202 9.864-20.891 4.053-30.93l-563.2-972.8c-4.658-8.045-13.186-12.774-22.154-12.774zM120.912 409.6h314.288c14.138 0 25.6-11.461 25.6-25.6v-314.288l467.346 807.234-807.234-467.346z" />
<glyph unicode="&#xe836;" glyph-name="calendar-full" d="M947.2 870.4h-128v25.6c0 14.138-11.461 25.6-25.6 25.6s-25.6-11.462-25.6-25.6v-25.6h-512v25.6c0 14.138-11.462 25.6-25.6 25.6s-25.6-11.462-25.6-25.6v-25.6h-128c-42.347 0-76.8-34.453-76.8-76.8v-716.8c0-42.349 34.453-76.8 76.8-76.8h870.4c42.349 0 76.8 34.451 76.8 76.8v716.8c0 42.347-34.451 76.8-76.8 76.8zM76.8 819.2h128v-76.8c0-14.138 11.462-25.6 25.6-25.6s25.6 11.462 25.6 25.6v76.8h512v-76.8c0-14.138 11.461-25.6 25.6-25.6s25.6 11.462 25.6 25.6v76.8h128c14.115 0 25.6-11.485 25.6-25.6v-128h-921.6v128c0 14.115 11.485 25.6 25.6 25.6zM947.2 51.2h-870.4c-14.115 0-25.6 11.485-25.6 25.6v537.6h921.6v-537.6c0-14.115-11.485-25.6-25.6-25.6zM384 460.8h-51.2c-14.138 0-25.6 11.461-25.6 25.6s11.462 25.6 25.6 25.6h51.2c14.138 0 25.6-11.461 25.6-25.6s-11.462-25.6-25.6-25.6zM537.6 460.8h-51.2c-14.138 0-25.6 11.461-25.6 25.6s11.462 25.6 25.6 25.6h51.2c14.139 0 25.6-11.461 25.6-25.6s-11.461-25.6-25.6-25.6zM691.2 460.8h-51.2c-14.139 0-25.6 11.461-25.6 25.6s11.461 25.6 25.6 25.6h51.2c14.139 0 25.6-11.461 25.6-25.6s-11.461-25.6-25.6-25.6zM844.8 460.8h-51.2c-14.139 0-25.6 11.461-25.6 25.6s11.461 25.6 25.6 25.6h51.2c14.139 0 25.6-11.461 25.6-25.6s-11.461-25.6-25.6-25.6zM230.4 358.4h-51.2c-14.138 0-25.6 11.461-25.6 25.6s11.462 25.6 25.6 25.6h51.2c14.138 0 25.6-11.461 25.6-25.6s-11.462-25.6-25.6-25.6zM384 358.4h-51.2c-14.138 0-25.6 11.461-25.6 25.6s11.462 25.6 25.6 25.6h51.2c14.138 0 25.6-11.461 25.6-25.6s-11.462-25.6-25.6-25.6zM537.6 358.4h-51.2c-14.138 0-25.6 11.461-25.6 25.6s11.462 25.6 25.6 25.6h51.2c14.139 0 25.6-11.461 25.6-25.6s-11.461-25.6-25.6-25.6zM691.2 358.4h-51.2c-14.139 0-25.6 11.461-25.6 25.6s11.461 25.6 25.6 25.6h51.2c14.139 0 25.6-11.461 25.6-25.6s-11.461-25.6-25.6-25.6zM844.8 358.4h-51.2c-14.139 0-25.6 11.461-25.6 25.6s11.461 25.6 25.6 25.6h51.2c14.139 0 25.6-11.461 25.6-25.6s-11.461-25.6-25.6-25.6zM230.4 256h-51.2c-14.138 0-25.6 11.461-25.6 25.6s11.462 25.6 25.6 25.6h51.2c14.138 0 25.6-11.461 25.6-25.6s-11.462-25.6-25.6-25.6zM384 256h-51.2c-14.138 0-25.6 11.461-25.6 25.6s11.462 25.6 25.6 25.6h51.2c14.138 0 25.6-11.461 25.6-25.6s-11.462-25.6-25.6-25.6zM537.6 256h-51.2c-14.138 0-25.6 11.461-25.6 25.6s11.462 25.6 25.6 25.6h51.2c14.139 0 25.6-11.461 25.6-25.6s-11.461-25.6-25.6-25.6zM691.2 256h-51.2c-14.139 0-25.6 11.461-25.6 25.6s11.461 25.6 25.6 25.6h51.2c14.139 0 25.6-11.461 25.6-25.6s-11.461-25.6-25.6-25.6zM844.8 256h-51.2c-14.139 0-25.6 11.461-25.6 25.6s11.461 25.6 25.6 25.6h51.2c14.139 0 25.6-11.461 25.6-25.6s-11.461-25.6-25.6-25.6zM230.4 153.6h-51.2c-14.138 0-25.6 11.461-25.6 25.6s11.462 25.6 25.6 25.6h51.2c14.138 0 25.6-11.461 25.6-25.6s-11.462-25.6-25.6-25.6zM384 153.6h-51.2c-14.138 0-25.6 11.461-25.6 25.6s11.462 25.6 25.6 25.6h51.2c14.138 0 25.6-11.461 25.6-25.6s-11.462-25.6-25.6-25.6zM537.6 153.6h-51.2c-14.138 0-25.6 11.461-25.6 25.6s11.462 25.6 25.6 25.6h51.2c14.139 0 25.6-11.461 25.6-25.6s-11.461-25.6-25.6-25.6zM691.2 153.6h-51.2c-14.139 0-25.6 11.461-25.6 25.6s11.461 25.6 25.6 25.6h51.2c14.139 0 25.6-11.461 25.6-25.6s-11.461-25.6-25.6-25.6zM844.8 153.6h-51.2c-14.139 0-25.6 11.461-25.6 25.6s11.461 25.6 25.6 25.6h51.2c14.139 0 25.6-11.461 25.6-25.6s-11.461-25.6-25.6-25.6z" />
<glyph unicode="&#xe83f;" glyph-name="bubble" d="M25.6 0c-11.507 0-21.6 7.677-24.67 18.766s1.634 22.864 11.501 28.784c86.57 51.942 122.485 127.414 135.218 162.755-94.088 72.048-147.648 171.746-147.648 276.094 0 52.704 13.23 103.755 39.323 151.736 24.902 45.794 60.406 86.806 105.526 121.899 91.504 71.17 212.802 110.365 341.55 110.365s250.046-39.195 341.552-110.366c45.118-35.093 80.624-76.104 105.526-121.899 26.091-47.979 39.322-99.030 39.322-151.734 0-52.702-13.23-103.755-39.322-151.736-24.902-45.794-60.408-86.806-105.526-121.899-91.506-71.17-212.803-110.365-341.552-110.365-52.907 0-104.8 6.627-154.437 19.707-21.974-14.637-63.040-40.605-112.086-65.005-76.163-37.89-141.528-57.102-194.277-57.102zM486.4 819.2c-239.97 0-435.2-149.294-435.2-332.8 0-92.946 51.432-182.379 141.107-245.368 8.797-6.178 12.795-17.194 10.013-27.576-5.984-22.325-26.363-83.597-80.878-142.734 66.659 23.341 138.424 63.832 191.434 100.286 6.296 4.328 14.197 5.621 21.544 3.52 48.558-13.888 99.691-20.928 151.981-20.928 239.97 0 435.2 149.294 435.2 332.8s-195.23 332.8-435.2 332.8z" />
<glyph unicode="&#xe853;" glyph-name="earth" d="M874.038 822.838c-96.704 96.704-225.278 149.962-362.038 149.962s-265.334-53.258-362.038-149.962c-96.704-96.704-149.962-225.278-149.962-362.038s53.258-265.334 149.962-362.038c96.704-96.704 225.278-149.962 362.038-149.962s265.334 53.258 362.038 149.962c96.704 96.704 149.962 225.278 149.962 362.038s-53.258 265.334-149.962 362.038zM941.918 626.622c-9.989 17.987-35.050 26.512-67.853 37.661-35.182 11.957-47.608 48.122-61.994 89.997-12.49 36.35-25.398 73.874-56.069 97.238 83.898-52.584 149.733-131.406 185.915-224.896zM798.235 451.043c3.872-34.683 7.875-70.546-35.163-118.874-11.629-13.056-18.44-31.238-25.653-50.49-16.701-44.582-32.486-86.709-99.642-87.325-1.882 2.262-7.242 10.734-11.981 37.533-4.366 24.698-6.886 56.606-9.555 90.389-4.093 51.834-8.731 110.582-21.544 159.32-16.382 62.325-43.867 99.141-84.026 112.554-17.522 5.853-35.411 8.698-54.693 8.698-14.211 0-27.125-1.522-38.517-2.864-8.875-1.045-17.258-2.034-24.341-2.034 0 0-0.002 0-0.003 0-11.987 0-25.573 0-42.278 38.29-24.021 55.053-6.304 143.267 64.202 189.787 38.661 25.509 65.336 36.392 89.2 36.392 19.026 0 39.581-6.622 68.73-22.146 34.418-18.33 61.379-20.68 81.026-20.68 7.789 0 14.85 0.419 21.682 0.826 5.726 0.339 11.134 0.661 16.139 0.661 11.259 0 20.387-1.467 31.088-8.776 19.723-13.472 29.936-43.195 40.747-74.664 16.392-47.715 34.973-101.798 93.941-121.837 7.925-2.693 21.576-7.333 31.216-11.366-8.328-8.608-22.285-21.067-35.92-33.24-8.808-7.862-18.789-16.773-29.851-26.858-31.965-29.133-28.16-63.221-24.803-93.296zM51.25 464.73c5.52-0.992 11.493-2.141 17.605-3.446 28.776-6.141 42.235-11.686 48.117-14.798-2.706-5.277-8.187-13.056-11.81-18.195-12.669-17.976-28.435-40.349-22.437-64.984 4.046-16.618 0.632-37.032-5.248-55.883-16.994 48.005-26.277 99.624-26.277 153.378 0 1.314 0.038 2.618 0.050 3.93zM512 0c-175.379 0-328.173 98.494-406.014 243.062 13.422 25.554 38.314 82.054 26.68 131.547 0.806 4.97 9.248 16.95 14.349 24.186 13.874 19.688 31.141 44.189 18.35 70.152-8.976 18.222-32.957 30.534-80.181 41.17-10.939 2.464-21.594 4.47-30.65 6.019 27.424 228.090 222.107 405.464 457.466 405.464 80.776 0 156.749-20.918 222.83-57.582-16.33 7.134-31.154 8.266-43.014 8.266-6.523 0-12.957-0.382-19.176-0.752-6.085-0.362-12.374-0.734-18.645-0.734-14.542 0-32.682 1.742-56.958 14.67-37.056 19.734-64.808 28.155-92.795 28.155-34.635 0-69.744-13.414-117.397-44.856-41.197-27.181-72.229-68.779-87.381-117.133-14.779-47.166-13.2-95.418 4.448-135.867 20.824-47.728 48.336-69.013 89.203-69.014 0.003 0 0.003 0 0.006 0 10.090 0 19.923 1.158 30.333 2.386 10.482 1.235 21.32 2.512 32.525 2.512 13.869 0 26.094-1.926 38.472-6.061 22.488-7.512 39.082-32.701 50.728-77.008 11.648-44.31 16.098-100.638 20.021-150.334 3.274-41.454 6.366-80.61 13.176-110.126 4.136-17.923 9.494-31.538 16.379-41.621 10.283-15.058 25.032-23.35 41.526-23.35 45.269 0 81.429 14.594 107.47 43.374 21.659 23.934 32.722 53.466 41.613 77.194 5.245 14.003 10.67 28.482 15.941 34.402 58.219 65.373 52.203 119.258 47.813 158.603-3.226 28.888-3.285 39.123 8.408 49.781 10.864 9.904 20.741 18.722 29.454 26.499 18.568 16.576 31.984 28.554 41.397 38.83 6.464 7.058 21.603 23.584 17.395 44.28-0.037 0.184-0.088 0.358-0.126 0.539 17.558-48.701 27.154-101.174 27.154-155.851 0-254.086-206.714-460.8-460.8-460.8z" />
<glyph unicode="&#xe854;" glyph-name="smile" d="M486.4-51.2c-129.922 0-252.067 50.594-343.936 142.464s-142.464 214.014-142.464 343.936c0 129.923 50.595 252.067 142.464 343.936s214.013 142.464 343.936 142.464c129.922 0 252.067-50.595 343.936-142.464s142.464-214.014 142.464-343.936-50.594-252.067-142.464-343.936c-91.869-91.87-214.014-142.464-343.936-142.464zM486.4 870.4c-239.97 0-435.2-195.23-435.2-435.2s195.23-435.2 435.2-435.2 435.2 195.23 435.2 435.2-195.23 435.2-435.2 435.2zM332.8 563.2c-42.347 0-76.8 34.453-76.8 76.8s34.453 76.8 76.8 76.8 76.8-34.453 76.8-76.8-34.453-76.8-76.8-76.8zM332.8 665.6c-14.115 0-25.6-11.485-25.6-25.6s11.485-25.6 25.6-25.6 25.6 11.485 25.6 25.6-11.485 25.6-25.6 25.6zM640 563.2c-42.349 0-76.8 34.453-76.8 76.8s34.451 76.8 76.8 76.8 76.8-34.453 76.8-76.8-34.451-76.8-76.8-76.8zM640 665.6c-14.115 0-25.6-11.485-25.6-25.6s11.485-25.6 25.6-25.6 25.6 11.485 25.6 25.6-11.485 25.6-25.6 25.6zM486.4 102.4c-183.506 0-332.8 149.294-332.8 332.8 0 14.139 11.462 25.6 25.6 25.6s25.6-11.461 25.6-25.6c0-155.275 126.325-281.6 281.6-281.6s281.6 126.325 281.6 281.6c0 14.139 11.461 25.6 25.6 25.6s25.6-11.461 25.6-25.6c0-183.506-149.294-332.8-332.8-332.8z" />
<glyph unicode="&#xe855;" glyph-name="sad" d="M486.4-51.2c-129.922 0-252.067 50.594-343.936 142.464s-142.464 214.014-142.464 343.936c0 129.923 50.595 252.067 142.464 343.936s214.013 142.464 343.936 142.464c129.922 0 252.067-50.595 343.936-142.464s142.464-214.014 142.464-343.936-50.594-252.067-142.464-343.936c-91.869-91.87-214.014-142.464-343.936-142.464zM486.4 870.4c-239.97 0-435.2-195.23-435.2-435.2s195.23-435.2 435.2-435.2 435.2 195.23 435.2 435.2-195.23 435.2-435.2 435.2zM332.8 563.2c-42.347 0-76.8 34.453-76.8 76.8s34.453 76.8 76.8 76.8 76.8-34.453 76.8-76.8-34.453-76.8-76.8-76.8zM332.8 665.6c-14.115 0-25.6-11.485-25.6-25.6s11.485-25.6 25.6-25.6 25.6 11.485 25.6 25.6-11.485 25.6-25.6 25.6zM640 563.2c-42.349 0-76.8 34.453-76.8 76.8s34.451 76.8 76.8 76.8 76.8-34.453 76.8-76.8-34.451-76.8-76.8-76.8zM640 665.6c-14.115 0-25.6-11.485-25.6-25.6s11.485-25.6 25.6-25.6 25.6 11.485 25.6 25.6-11.485 25.6-25.6 25.6zM281.562 204.798c-5.352 0-10.747 1.672-15.355 5.133-11.304 8.491-13.586 24.539-5.094 35.843 25.686 34.195 59.344 62.531 97.338 81.941 39.858 20.362 82.907 30.685 127.95 30.685s88.091-10.323 127.949-30.685c37.992-19.408 71.653-47.742 97.339-81.938 8.491-11.304 6.211-27.352-5.094-35.843-11.307-8.493-27.352-6.21-35.843 5.094-44 58.576-111.194 92.171-184.35 92.171s-140.35-33.597-184.35-92.174c-5.029-6.696-12.712-10.227-20.488-10.227z" />
<glyph unicode="&#xe859;" glyph-name="bullhorn" d="M992.694 814.118c-29.611 88.835-68.928 107.482-96.694 107.482-0.584 0-1.176-0.011-1.771-0.029-28.322-0.598-78.627-15.33-153.997-37.41-157.898-46.258-396.514-116.162-637.832-116.162-58.378 0-102.4-77.038-102.4-179.2s44.022-179.2 102.4-179.2c18.891 0 37.765-0.429 56.584-1.24l85.306-339.347c9.73-38.699 48.608-69.013 88.51-69.013h67.2c22.17 0 40.986 9.23 51.622 25.322 10.635 16.091 11.75 37.019 3.061 57.416l-131.926 309.634c160.552-23.672 308.307-66.95 417.474-98.931 75.37-22.082 125.675-36.813 153.997-37.411 0.595-0.018 1.187-0.029 1.771-0.029 27.766 0 67.083 18.646 96.694 107.482 20.19 60.563 31.307 140.582 31.307 225.318 0 84.734-11.117 164.755-31.306 225.318zM819.2 588.8c0 26.266 1.122 51.965 3.285 76.616 26.291-2.642 47.915-36.642 47.915-76.616s-21.624-73.974-47.915-76.616c-2.163 24.651-3.285 50.35-3.285 76.616zM51.2 588.8c0 78.136 30.325 128 51.2 128 58.117 0 115.915 3.888 172.422 10.445-12.142-38.794-18.822-86.912-18.822-138.445 0-51.549 6.68-99.658 18.821-138.443-56.507 6.555-114.306 10.443-172.421 10.443-20.875 0-51.2 49.864-51.2 128zM407.579 62.669c2.099-4.928 1.93-8.208 1.328-9.117s-3.55-2.352-8.907-2.352h-67.2c-16.349 0-34.869 14.44-38.856 30.296l-81.33 323.53c17.157-1.379 34.235-3.046 51.213-4.966l143.752-337.39zM332.24 442.749c-15.587 35.173-25.040 89.509-25.040 146.051 0 57.422 9.238 110.73 25.011 146.046 163.054 24.2 312.094 67.861 422.414 100.179 21.243 6.224 41.526 12.165 59.938 17.344-5.285-11.019-10.402-23.686-15.256-38.253-20.19-60.562-31.307-140.582-31.307-225.317s11.117-164.755 31.306-225.318c4.854-14.566 9.971-27.234 15.256-38.253-18.411 5.181-38.694 11.122-59.938 17.346-110.314 32.317-259.341 75.974-422.384 100.174zM944.122 379.672c-19.107-57.325-39.832-72.472-48.122-72.472s-29.014 15.147-48.122 72.472c-8.024 24.069-14.48 51.678-19.222 81.701 24.888 2.87 48.298 16.95 65.33 39.658 17.808 23.744 27.614 54.914 27.614 87.77 0 32.854-9.806 64.026-27.614 87.768-17.034 22.709-40.442 36.789-65.33 39.659 4.742 30.024 11.198 57.632 19.222 81.699 19.109 57.326 39.832 72.474 48.122 72.474s29.013-15.147 48.122-72.472c18.494-55.482 28.678-129.75 28.678-209.128s-10.184-153.646-28.678-209.128z" />
<glyph unicode="&#xe862;" glyph-name="sync" d="M1016.501 530.102c-9.997 9.997-26.206 9.997-36.203 0l-58.832-58.832c-2.63 105.486-44.947 204.27-119.835 279.16-77.362 77.365-180.222 119.97-289.63 119.97-152.28 0-291.122-83.699-362.342-218.435-6.606-12.499-1.83-27.989 10.669-34.597 12.498-6.606 27.989-1.83 34.597 10.669 62.33 117.914 183.826 191.163 317.077 191.163 194.014 0 352.501-154.966 358.224-347.619l-58.522 58.522c-9.997 9.997-26.206 9.997-36.203 0-9.998-9.998-9.998-26.206 0-36.205l102.4-102.4c4.998-4.998 11.549-7.498 18.101-7.498s13.102 2.499 18.101 7.499l102.4 102.4c9.998 9.997 9.998 26.205 0 36.203zM863.674 304.234c-12.502 6.603-27.99 1.832-34.597-10.669-62.328-117.915-183.826-191.165-317.077-191.165-194.016 0-352.502 154.966-358.224 347.621l58.522-58.522c5-5 11.55-7.499 18.102-7.499s13.102 2.499 18.102 7.499c9.997 9.997 9.997 26.206 0 36.203l-102.4 102.4c-9.998 9.997-26.206 9.997-36.205 0l-102.4-102.4c-9.997-9.997-9.997-26.206 0-36.203s26.206-9.997 36.205 0l58.83 58.832c2.63-105.488 44.946-204.272 119.835-279.162 77.365-77.363 180.224-119.97 289.632-119.97 152.28 0 291.12 83.699 362.342 218.435 6.608 12.501 1.829 27.99-10.669 34.598z" />
<glyph unicode="&#xe864;" glyph-name="clock" d="M835.574 96.629c88.534 91.234 137.226 211.154 137.226 338.571 0 121.352-44.152 235.912-124.834 325.36l35.234 35.237 33.101-33.099c4.997-4.998 11.547-7.498 18.099-7.498s13.102 2.499 18.099 7.499c10 9.997 10 26.206 0 36.203l-102.4 102.4c-9.995 9.998-26.208 9.998-36.205 0s-9.998-26.206 0-36.203l33.102-33.099-35.237-35.235c-89.45 80.683-204.008 124.835-325.36 124.835s-235.91-44.152-325.36-124.835l-35.237 35.235 33.098 33.098c9.998 9.997 9.998 26.206 0 36.203s-26.206 9.998-36.203 0l-102.4-102.4c-9.998-9.997-9.998-26.206 0-36.203 5-4.998 11.55-7.498 18.102-7.498s13.102 2.499 18.101 7.499l33.099 33.098 35.237-35.237c-80.685-89.45-124.837-204.008-124.837-325.36 0-127.418 48.691-247.336 137.226-338.57l-104.128-104.125c-9.998-9.997-9.998-26.21 0-36.205 5-5.002 11.55-7.501 18.102-7.501s13.102 2.499 18.101 7.501l105.448 105.446c87.304-73.114 196.41-112.947 311.651-112.947s224.349 39.834 311.651 112.946l105.443-105.445c5-5 11.554-7.501 18.102-7.501s13.102 2.499 18.099 7.501c10 9.995 10 26.208 0 36.205l-104.122 104.123zM51.2 435.2c0 239.97 195.23 435.2 435.2 435.2s435.2-195.23 435.2-435.2c0-239.97-195.23-435.2-435.2-435.2s-435.2 195.23-435.2 435.2zM774.611 601.6c-7.069 12.245-22.728 16.435-34.966 9.37l-251.917-145.445-196.344 137.482c-11.582 8.11-27.547 5.294-35.654-6.286-8.11-11.582-5.294-27.546 6.286-35.654l209.702-146.834c0.042-0.030 0.085-0.053 0.126-0.082 0.448-0.309 0.906-0.603 1.37-0.883 0.106-0.064 0.21-0.13 0.315-0.192 0.458-0.264 0.923-0.512 1.394-0.75 0.102-0.051 0.203-0.11 0.307-0.163 0.518-0.25 1.046-0.485 1.579-0.699 0.328-0.133 0.659-0.246 0.99-0.366 0.219-0.075 0.435-0.16 0.656-0.232 0.36-0.117 0.722-0.222 1.085-0.322 0.2-0.056 0.4-0.109 0.6-0.163 0.366-0.091 0.733-0.174 1.101-0.251 0.213-0.042 0.426-0.083 0.64-0.12 0.355-0.064 0.71-0.125 1.067-0.171 0.258-0.035 0.515-0.059 0.774-0.090 0.315-0.034 0.629-0.070 0.944-0.091 0.466-0.034 0.933-0.045 1.4-0.053 0.104 0 0.208-0.011 0.314-0.011 0.005 0 0.011 0.002 0.016 0.002 0.010 0 0.021-0.002 0.030-0.002 0.957 0 1.917 0.062 2.875 0.171 0.045 0.003 0.091 0.006 0.134 0.013 0.93 0.109 1.854 0.28 2.776 0.496 0.086 0.021 0.173 0.035 0.259 0.059 0.867 0.213 1.728 0.472 2.579 0.779 0.146 0.050 0.29 0.104 0.434 0.163 0.795 0.302 1.581 0.637 2.358 1.029 0.184 0.094 0.365 0.197 0.549 0.294 0.269 0.144 0.542 0.278 0.81 0.434l266.043 153.6c12.24 7.069 16.435 22.725 9.366 34.97z" />
<glyph unicode="&#xe86f;" glyph-name="magnifier" d="M966.070-8.301l-304.302 331.965c68.573 71.754 106.232 165.549 106.232 265.136 0 102.57-39.942 199-112.47 271.53s-168.96 112.47-271.53 112.47-199-39.942-271.53-112.47-112.47-168.96-112.47-271.53 39.942-199.002 112.47-271.53 168.96-112.47 271.53-112.47c88.362 0 172.152 29.667 240.043 84.248l304.285-331.947c5.050-5.507 11.954-8.301 18.878-8.301 6.179 0 12.378 2.226 17.293 6.728 10.421 9.555 11.126 25.749 1.571 36.171zM51.2 588.8c0 183.506 149.294 332.8 332.8 332.8s332.8-149.294 332.8-332.8-149.294-332.8-332.8-332.8-332.8 149.294-332.8 332.8z" />
<glyph unicode="&#xe870;" glyph-name="cross" d="M548.203 435.2l289.099 289.098c9.998 9.998 9.998 26.206 0 36.205-9.997 9.997-26.206 9.997-36.203 0l-289.099-289.099-289.098 289.099c-9.998 9.997-26.206 9.997-36.205 0-9.997-9.998-9.997-26.206 0-36.205l289.099-289.098-289.099-289.099c-9.997-9.997-9.997-26.206 0-36.203 5-4.998 11.55-7.498 18.102-7.498s13.102 2.499 18.102 7.499l289.098 289.098 289.099-289.099c4.998-4.998 11.549-7.498 18.101-7.498s13.102 2.499 18.101 7.499c9.998 9.997 9.998 26.206 0 36.203l-289.098 289.098z" />
<glyph unicode="&#xe871;" glyph-name="menu" d="M896 665.6h-768c-14.138 0-25.6 11.462-25.6 25.6s11.462 25.6 25.6 25.6h768c14.139 0 25.6-11.462 25.6-25.6s-11.461-25.6-25.6-25.6zM896 409.6h-768c-14.138 0-25.6 11.461-25.6 25.6s11.462 25.6 25.6 25.6h768c14.139 0 25.6-11.461 25.6-25.6s-11.461-25.6-25.6-25.6zM896 153.6h-768c-14.138 0-25.6 11.461-25.6 25.6s11.462 25.6 25.6 25.6h768c14.139 0 25.6-11.461 25.6-25.6s-11.461-25.6-25.6-25.6z" />
<glyph unicode="&#xe872;" glyph-name="list" d="M998.4 153.6h-768c-14.138 0-25.6 11.461-25.6 25.6s11.462 25.6 25.6 25.6h768c14.139 0 25.6-11.461 25.6-25.6s-11.461-25.6-25.6-25.6zM998.4 409.6h-768c-14.138 0-25.6 11.461-25.6 25.6s11.462 25.6 25.6 25.6h768c14.139 0 25.6-11.461 25.6-25.6s-11.461-25.6-25.6-25.6zM998.4 665.6h-768c-14.138 0-25.6 11.462-25.6 25.6s11.462 25.6 25.6 25.6h768c14.139 0 25.6-11.462 25.6-25.6s-11.461-25.6-25.6-25.6zM76.8 614.4c-42.347 0-76.8 34.453-76.8 76.8s34.453 76.8 76.8 76.8 76.8-34.453 76.8-76.8-34.453-76.8-76.8-76.8zM76.8 716.8c-14.115 0-25.6-11.485-25.6-25.6s11.485-25.6 25.6-25.6 25.6 11.485 25.6 25.6-11.485 25.6-25.6 25.6zM76.8 358.4c-42.347 0-76.8 34.451-76.8 76.8 0 42.347 34.453 76.8 76.8 76.8s76.8-34.453 76.8-76.8c0-42.349-34.453-76.8-76.8-76.8zM76.8 460.8c-14.115 0-25.6-11.485-25.6-25.6s11.485-25.6 25.6-25.6 25.6 11.485 25.6 25.6-11.485 25.6-25.6 25.6zM76.8 102.4c-42.347 0-76.8 34.451-76.8 76.8s34.453 76.8 76.8 76.8 76.8-34.451 76.8-76.8-34.453-76.8-76.8-76.8zM76.8 204.8c-14.115 0-25.6-11.485-25.6-25.6s11.485-25.6 25.6-25.6 25.6 11.485 25.6 25.6-11.485 25.6-25.6 25.6z" />
<glyph unicode="&#xe873;" glyph-name="chevron-up" d="M0 204.8c0-6.552 2.499-13.102 7.499-18.101 9.997-9.998 26.206-9.998 36.203 0l442.698 442.698 442.699-442.698c9.997-9.998 26.206-9.998 36.203 0s9.998 26.206 0 36.203l-460.8 460.8c-9.997 9.998-26.206 9.998-36.203 0l-460.8-460.8c-5-5-7.499-11.55-7.499-18.102z" />
<glyph unicode="&#xe874;" glyph-name="chevron-down" d="M0 665.6c0 6.552 2.499 13.102 7.499 18.101 9.997 9.998 26.206 9.998 36.203 0l442.698-442.698 442.699 442.698c9.997 9.998 26.206 9.998 36.203 0s9.998-26.206 0-36.203l-460.8-460.8c-9.997-9.998-26.206-9.998-36.203 0l-460.8 460.8c-5 5-7.499 11.55-7.499 18.102z" />
<glyph unicode="&#xe875;" glyph-name="chevron-left" d="M716.8-51.2c6.552 0 13.102 2.499 18.101 7.499 9.998 9.997 9.998 26.206 0 36.203l-442.698 442.698 442.698 442.699c9.998 9.997 9.998 26.206 0 36.203s-26.206 9.998-36.203 0l-460.8-460.8c-9.998-9.997-9.998-26.206 0-36.203l460.8-460.8c5-5 11.55-7.499 18.102-7.499z" />
<glyph unicode="&#xe876;" glyph-name="chevron-right" d="M256-51.2c-6.552 0-13.102 2.499-18.101 7.499-9.998 9.997-9.998 26.206 0 36.203l442.698 442.698-442.698 442.699c-9.998 9.997-9.998 26.206 0 36.203s26.206 9.998 36.203 0l460.8-460.8c9.998-9.997 9.998-26.206 0-36.203l-460.8-460.8c-5-5-11.55-7.499-18.102-7.499z" />
<glyph unicode="&#xe877;" glyph-name="arrow-up" d="M468.299 939.701l-307.2-307.2c-9.997-9.997-9.997-26.206 0-36.203 9.998-9.998 26.206-9.998 36.205 0l263.496 263.498v-834.195c0-14.138 11.461-25.6 25.6-25.6s25.6 11.462 25.6 25.6v834.195l263.499-263.496c9.997-9.998 26.206-9.998 36.203 0 4.998 4.998 7.498 11.549 7.498 18.101s-2.499 13.102-7.499 18.101l-307.2 307.2c-9.997 9.998-26.205 9.998-36.202 0z" />
<glyph unicode="&#xe878;" glyph-name="arrow-down" d="M504.501-18.101l307.2 307.2c9.997 9.997 9.997 26.206 0 36.203-9.998 9.998-26.206 9.998-36.205 0l-263.496-263.498v834.195c0 14.138-11.461 25.6-25.6 25.6s-25.6-11.462-25.6-25.6v-834.195l-263.499 263.496c-9.997 9.998-26.206 9.998-36.203 0-4.998-4.998-7.498-11.549-7.498-18.101s2.499-13.102 7.499-18.101l307.2-307.2c9.997-9.998 26.205-9.998 36.202 0z" />
<glyph unicode="&#xe879;" glyph-name="arrow-left" d="M33.099 453.301l307.2 307.2c9.997 9.997 26.206 9.997 36.203 0 9.998-9.998 9.998-26.206 0-36.205l-263.498-263.496h834.195c14.138 0 25.6-11.461 25.6-25.6s-11.462-25.6-25.6-25.6h-834.195l263.496-263.499c9.998-9.997 9.998-26.206 0-36.203-4.998-4.998-11.549-7.498-18.101-7.498s-13.102 2.499-18.101 7.499l-307.2 307.2c-9.998 9.997-9.998 26.205 0 36.202z" />
<glyph unicode="&#xe87a;" glyph-name="arrow-right" d="M990.901 453.301l-307.2 307.2c-9.997 9.997-26.206 9.997-36.203 0-9.998-9.998-9.998-26.206 0-36.205l263.498-263.496h-834.195c-14.138 0-25.6-11.461-25.6-25.6s11.462-25.6 25.6-25.6h834.195l-263.496-263.499c-9.998-9.997-9.998-26.206 0-36.203 4.998-4.998 11.549-7.498 18.101-7.498s13.102 2.499 18.101 7.499l307.2 307.2c9.998 9.997 9.998 26.205 0 36.202z" />
<glyph unicode="&#xe87b;" glyph-name="move" d="M939.701 453.301l-153.6 153.6c-9.997 9.998-26.206 9.998-36.203 0-9.998-9.997-9.998-26.206 0-36.203l109.899-109.898h-347.797v347.797l109.899-109.898c4.998-5 11.549-7.499 18.101-7.499s13.102 2.499 18.101 7.499c9.998 9.997 9.998 26.206 0 36.203l-153.6 153.6c-9.997 9.998-26.206 9.998-36.203 0l-153.6-153.6c-9.998-9.997-9.998-26.206 0-36.203s26.206-9.998 36.203 0l109.899 109.898v-347.797h-347.797l109.898 109.899c9.998 9.997 9.998 26.206 0 36.203-9.997 9.998-26.206 9.998-36.203 0l-153.6-153.6c-9.998-9.997-9.998-26.206 0-36.203l153.6-153.6c5-5 11.55-7.499 18.102-7.499s13.102 2.499 18.101 7.499c9.998 9.997 9.998 26.206 0 36.203l-109.898 109.898h347.797v-347.797l-109.899 109.899c-9.997 9.997-26.206 9.997-36.203 0-9.998-9.997-9.998-26.206 0-36.203l153.6-153.6c5-5 11.55-7.499 18.102-7.499s13.102 2.499 18.101 7.499l153.6 153.6c9.998 9.997 9.998 26.206 0 36.203-9.997 9.997-26.206 9.997-36.203 0l-109.898-109.899v347.797h347.797l-109.899-109.899c-9.998-9.997-9.998-26.206 0-36.203 5-4.998 11.55-7.498 18.102-7.498s13.102 2.499 18.101 7.499l153.6 153.6c9.998 9.997 9.998 26.205 0 36.202z" />
<glyph unicode="&#xe87d;" glyph-name="question-circle" d="M830.338 779.136c-91.869 91.869-214.016 142.464-343.938 142.464s-252.067-50.595-343.936-142.464-142.464-214.014-142.464-343.936 50.595-252.069 142.464-343.938 214.014-142.462 343.936-142.462 252.069 50.594 343.938 142.462 142.462 214.016 142.462 343.938-50.594 252.067-142.462 343.936zM486.4 0c-239.97 0-435.2 195.23-435.2 435.2s195.23 435.2 435.2 435.2c239.97 0 435.2-195.23 435.2-435.2s-195.23-435.2-435.2-435.2zM486.4 204.8c-14.138 0-25.6 11.461-25.6 25.6v102.4c0 14.139 11.462 25.6 25.6 25.6 98.811 0 179.2 80.389 179.2 179.2s-80.389 179.2-179.2 179.2-179.2-80.389-179.2-179.2c0-14.138-11.462-25.6-25.6-25.6s-25.6 11.462-25.6 25.6c0 127.043 103.357 230.4 230.4 230.4 127.042 0 230.4-103.357 230.4-230.4 0-118.389-89.763-216.211-204.8-228.987v-78.213c0-14.139-11.462-25.6-25.6-25.6zM486.4 51.2c-0.002 0 0 0 0 0-14.139 0-25.6 11.462-25.6 25.6v51.2c0 14.138 11.462 25.6 25.6 25.6 0 0 0 0 0 0 14.139 0 25.6-11.462 25.6-25.6v-51.2c0-14.138-11.464-25.6-25.6-25.6z" />
<glyph unicode="&#xe88f;" glyph-name="funnel" d="M830.966 803.472c-20.294 13.707-48.59 25.803-84.106 35.95-69.917 19.976-162.418 30.978-260.461 30.978-98.045 0-190.544-11.002-260.461-30.978-35.515-10.147-63.813-22.243-84.104-35.95-32.594-22.016-39.435-45.363-39.435-61.072v-25.6c0-21.894 16.451-58.026 32.701-82.4l250.398-375.598c12.838-19.259 24.101-56.456 24.101-79.602v-153.6c0-8.872 4.594-17.112 12.141-21.776 4.11-2.541 8.778-3.824 13.459-3.824 3.912 0 7.835 0.898 11.448 2.702l102.4 51.2c8.674 4.336 14.152 13.2 14.152 22.898v102.4c0 23.146 11.262 60.342 24.099 79.602l250.4 375.598c16.251 24.373 32.701 60.504 32.701 82.4v25.6c0 15.709-6.842 39.056-39.434 61.072zM240.005 790.194c65.47 18.706 152.974 29.006 246.395 29.006s180.925-10.301 246.394-29.006c70.533-20.154 86.406-41.798 86.406-47.794s-15.874-27.64-86.406-47.794c-65.469-18.706-152.973-29.006-246.394-29.006s-180.925 10.301-246.395 29.006c-70.531 20.154-86.405 41.798-86.405 47.794s15.874 27.64 86.405 47.794zM544.701 287.202c-18.338-27.504-32.701-74.946-32.701-108.002v-86.578l-51.2-25.6v112.178c0 33.056-14.363 80.496-32.701 108.002l-249.859 374.79c14.035-5.997 29.966-11.549 47.699-16.614 69.917-19.976 162.416-30.978 260.461-30.978 98.043 0 190.544 11.002 260.459 30.978 17.733 5.067 33.666 10.619 47.702 16.616l-249.861-374.792z" />
<glyph unicode="&#xe900;" glyph-name="check" d="M823.168 734.165l-439.168-439.168-183.168 183.168c-16.683 16.683-43.691 16.683-60.331 0s-16.683-43.691 0-60.331l213.333-213.333c16.683-16.683 43.691-16.683 60.331 0l469.333 469.333c16.683 16.683 16.683 43.691 0 60.331s-43.691 16.683-60.331 0z" />
<glyph unicode="&#xe901;" glyph-name="pinterest1" d="M810.035 855.067c-70.486 67.666-168.031 104.933-274.665 104.933-162.889 0-263.073-66.771-318.432-122.781-68.227-69.026-107.351-160.679-107.351-251.464 0-113.986 47.678-201.474 127.52-234.022 5.36-2.196 10.754-3.303 16.041-3.303 16.844 0 30.19 11.021 34.814 28.7 2.695 10.143 8.94 35.164 11.655 46.026 5.813 21.451 1.116 31.769-11.559 46.707-23.092 27.323-33.846 59.633-33.846 101.683 0 124.901 93.004 257.646 265.378 257.646 136.771 0 221.733-77.735 221.733-202.868 0-78.964-17.009-152.092-47.902-205.923-21.468-37.403-59.217-81.989-117.17-81.989-25.061 0-47.572 10.294-61.777 28.241-13.419 16.966-17.841 38.883-12.445 61.724 6.097 25.807 14.41 52.727 22.455 78.753 14.674 47.532 28.545 92.426 28.545 128.244 0 61.265-37.664 102.43-93.714 102.43-71.232 0-127.038-72.349-127.038-164.709 0-45.296 12.038-79.175 17.488-92.185-8.973-38.021-62.305-264.060-72.421-306.685-5.849-24.882-41.086-221.409 17.237-237.081 65.529-17.607 124.102 173.798 130.063 195.427 4.832 17.59 21.738 84.103 32.099 124.99 31.633-30.471 82.567-51.070 132.128-51.070 93.43 0 177.454 42.043 236.595 118.378 57.358 74.040 88.948 177.236 88.948 290.564 0 88.598-38.047 175.941-104.378 239.63z" />
<glyph unicode="&#xe902;" glyph-name="quote-left" horiz-adv-x="951" d="M438.857 402.286v-219.429c0-60.571-49.143-109.714-109.714-109.714h-219.429c-60.571 0-109.714 49.143-109.714 109.714v402.286c0 161.143 131.429 292.571 292.571 292.571h36.571c20 0 36.571-16.571 36.571-36.571v-73.143c0-20-16.571-36.571-36.571-36.571h-36.571c-80.571 0-146.286-65.714-146.286-146.286v-18.286c0-30.286 24.571-54.857 54.857-54.857h128c60.571 0 109.714-49.143 109.714-109.714zM950.857 402.286v-219.429c0-60.571-49.143-109.714-109.714-109.714h-219.429c-60.571 0-109.714 49.143-109.714 109.714v402.286c0 161.143 131.429 292.571 292.571 292.571h36.571c20 0 36.571-16.571 36.571-36.571v-73.143c0-20-16.571-36.571-36.571-36.571h-36.571c-80.571 0-146.286-65.714-146.286-146.286v-18.286c0-30.286 24.571-54.857 54.857-54.857h128c60.571 0 109.714-49.143 109.714-109.714z" />
<glyph unicode="&#xe903;" glyph-name="instagram" d="M704 960h-384c-176.704 0-320-143.296-320-320v-384c0-176.704 143.296-320 320-320h384c176.704 0 320 143.296 320 320v384c0 176.704-143.296 320-320 320zM928 256c0-123.52-100.48-224-224-224h-384c-123.52 0-224 100.48-224 224v384c0 123.52 100.48 224 224 224h384c123.52 0 224-100.48 224-224v-384zM512 704c-141.376 0-256-114.624-256-256s114.624-256 256-256 256 114.624 256 256-114.624 256-256 256zM512 288c-88.192 0-160 71.808-160 160 0 88.256 71.808 160 160 160s160-71.744 160-160c0-88.192-71.808-160-160-160zM821.312 723.2c0-18.84-15.272-34.112-34.112-34.112s-34.112 15.272-34.112 34.112c0 18.84 15.272 34.112 34.112 34.112s34.112-15.272 34.112-34.112z" />
<glyph unicode="&#xe904;" glyph-name="paper-plane" d="M954.368 837.939c-17.613-6.195-886.835-312.525-903.987-318.566-14.541-5.12-17.766-17.664-0.512-24.525 20.531-8.243 194.355-77.875 194.355-77.875v0l115.2-46.131c0 0 554.906 407.45 562.381 412.979 7.578 5.53 16.282-4.864 10.803-10.803-5.478-5.99-402.995-435.866-402.995-435.866v-0.102l-23.142-25.754 30.669-16.486c0 0 238.080-128.205 255.078-137.318 14.899-7.987 34.202-1.382 38.502 17.101 5.069 21.811 145.664 627.763 148.787 641.28 4.045 17.562-7.578 28.262-25.139 22.067zM358.4 94.106c0-12.595 7.117-16.128 16.947-7.219 12.851 11.725 145.92 131.123 145.92 131.123l-162.867 84.173v-208.077z" />
<glyph unicode="&#xe905;" glyph-name="quote" d="M272.128 798.669c-82.432 0-149.299-68.762-149.299-153.6 0-84.787 66.867-153.6 149.299-153.6 149.248 0 49.766-296.909-149.299-296.909v-71.68c355.277-0.051 494.49 675.789 149.299 675.789zM702.208 798.669c-82.381 0-149.248-68.762-149.248-153.6 0-84.787 66.867-153.6 149.248-153.6 149.299 0 49.818-296.909-149.248-296.909v-71.68c355.226-0.051 494.438 675.789 149.248 675.789z" />
<glyph unicode="&#xe906;" glyph-name="google-plus" d="M896 512v128h-64v-128h-128v-64h128v-128h64v128h128v64zM320 512v-128h181.056c-26.432-74.496-97.6-128-181.056-128-105.856 0-192 86.144-192 192s86.144 192 192 192c45.888 0 90.048-16.448 124.352-46.336l84.096 96.512c-57.6 50.176-131.584 77.824-208.448 77.824-176.448 0-320-143.552-320-320s143.552-320 320-320 320 143.552 320 320v64h-320z" />
<glyph unicode="&#xe907;" glyph-name="whatsapp" d="M512.128 960h-0.256c-282.304 0-511.872-229.632-511.872-512 0-112 36.096-215.808 97.472-300.096l-63.808-190.208 196.8 62.912c80.96-53.632 177.536-84.608 281.664-84.608 282.304 0 511.872 229.696 511.872 512s-229.568 512-511.872 512zM810.048 236.992c-12.352-34.88-61.376-63.808-100.48-72.256-26.752-5.696-61.696-10.24-179.328 38.528-150.464 62.336-247.36 215.232-254.912 225.152-7.232 9.92-60.8 80.96-60.8 154.432s37.312 109.248 52.352 124.608c12.352 12.608 32.768 18.368 52.352 18.368 6.336 0 12.032-0.32 17.152-0.576 15.040-0.64 22.592-1.536 32.512-25.28 12.352-29.76 42.432-103.232 46.016-110.784 3.648-7.552 7.296-17.792 2.176-27.712-4.8-10.24-9.024-14.784-16.576-23.488s-14.72-15.36-22.272-24.704c-6.912-8.128-14.72-16.832-6.016-31.872 8.704-14.72 38.784-63.808 83.072-103.232 57.152-50.88 103.488-67.136 120.064-74.048 12.352-5.12 27.072-3.904 36.096 5.696 11.456 12.352 25.6 32.832 40 52.992 10.24 14.464 23.168 16.256 36.736 11.136 13.824-4.8 86.976-40.96 102.016-48.448 15.040-7.552 24.96-11.136 28.608-17.472 3.584-6.336 3.584-36.096-8.768-71.040z" />
<glyph unicode="&#xe908;" glyph-name="headphones" d="M862.333 570.622v39.368c0 94.225-33.345 181.782-93.795 246.75-61.956 66.689-147.146 103.261-240.081 103.261h-32.484c-92.934 0-178.124-36.571-240.081-103.261-60.45-64.968-93.795-152.524-93.795-246.75v-39.368c-73.358-4.948-131.657-66.044-131.657-140.692v-61.526c0-77.661 63.247-140.908 140.908-140.908h79.382c14.198 0 25.815 11.617 25.815 25.815v291.926c0 14.198-11.617 25.815-25.815 25.815h-37.002v38.938c0 170.165 121.331 298.38 282.030 298.38h32.484c160.914 0 282.030-128.215 282.030-298.38v-38.938h-37.002c-14.198 0-25.815-11.617-25.815-25.815v-291.711c0-14.198 11.617-25.815 25.815-25.815h36.141c-10.541-134.669-103.261-165.862-146.286-172.961-11.832 36.356-46.037 62.602-86.266 62.602h-64.538c-49.909 0-90.568-40.659-90.568-90.568s40.659-90.783 90.568-90.783h64.753c41.734 0 76.8 28.397 87.341 66.689 21.082 3.012 54.427 10.541 87.556 29.903 46.682 27.321 101.97 83.039 109.284 195.334 73.788 4.518 132.303 65.829 132.303 140.692v61.526c0.215 74.434-57.869 135.745-131.227 140.477zM225.345 279.341h-53.566c-49.264 0-89.277 40.013-89.277 89.277v61.526c0 49.264 40.013 89.277 89.277 89.277h53.566v-240.081zM577.076-12.37h-64.753c-21.513 0-38.938 17.425-38.938 38.938s17.425 38.938 38.938 38.938h64.753c21.513 0 38.938-17.425 38.938-38.938s-17.425-38.938-38.938-38.938zM942.145 368.618c0-49.264-40.013-89.277-89.277-89.277h-53.566v240.081h53.566c49.264 0 89.277-40.013 89.277-89.277v-61.526z" />
<glyph unicode="&#xe909;" glyph-name="tumblr" d="M810.667-4.011l-50.133 146.133c-19.541-9.131-56.619-17.024-83.968-17.877h-3.883c-79.488 0-95.061 58.453-95.744 101.163v318.72h209.109v155.008h-208.341v260.864h-152.533c-2.517 0-6.912-2.176-7.509-7.637-8.619-79.915-46.848-219.989-204.331-276.011v-132.224h104.789v-334.592c0-113.28 84.053-273.536 304.981-273.536l-0.469 0.085h7.723c76.203 1.28 161.408 32.768 180.309 59.904z" />
<glyph unicode="&#xe90a;" glyph-name="youtube" d="M984.087 746.463c-36.963 43.94-105.208 61.863-235.54 61.863h-473.105c-133.315 0-202.716-19.079-239.54-65.86-35.903-45.611-35.903-112.815-35.903-205.827v-177.281c0-180.194 42.598-271.684 275.443-271.684h473.108c113.023 0 175.652 15.816 216.17 54.592 41.551 39.764 59.28 104.689 59.28 217.091v177.281c0 98.089-2.778 165.69-39.913 209.824zM657.411 423.523l-214.835-112.28c-4.803-2.51-10.055-3.756-15.301-3.756-5.939 0-11.865 1.599-17.114 4.776-9.883 5.989-15.918 16.701-15.918 28.256v223.84c0 11.535 6.018 22.237 15.882 28.229 9.867 5.992 22.138 6.402 32.375 1.083l214.835-111.557c10.93-5.675 17.794-16.959 17.811-29.27 0.013-12.321-6.821-23.621-17.735-29.323z" />
<glyph unicode="&#xe90b;" glyph-name="vimeo-logo" d="M874.311 891.544c-142.356 4.645-238.691-75.21-289.134-239.655 25.979 10.699 51.224 16.099 75.846 16.099 51.91 0 74.886-29.133 68.753-87.554-3.043-35.378-25.976-86.854-68.753-154.41-42.946-67.668-75.024-101.443-96.334-101.443-27.667 0-52.85 52.276-75.843 156.7-7.711 30.754-21.5 109.067-41.244 235.134-18.51 116.766-67.423 171.323-146.956 163.655-33.645-3.093-84.045-33.904-151.31-92.216-49.074-44.577-98.796-89.166-149.334-133.71l48.151-62.166c45.955 32.288 72.839 48.355 80.305 48.355 35.24 0 68.149-55.278 98.772-165.821 27.45-101.524 55.133-202.911 82.717-304.287 41.082-110.624 91.728-165.957 151.301-165.957 96.356 0 214.333 90.623 353.466 271.935 134.6 173.578 204.089 310.334 208.777 410.299 6.178 133.595-43.544 202.008-149.177 205.041z" />
<glyph unicode="&#xe90c;" glyph-name="rss-symbol" d="M232.106 168.468c24.805-24.779 39.889-58.388 39.982-95.811-0.095-37.347-15.177-70.968-39.889-95.634l-0.095-0.045c-24.755-24.645-58.573-39.713-96.177-39.713-37.556 0-71.289 15.113-96.039 39.756-24.688 24.669-39.887 58.247-39.887 95.637 0 37.423 15.199 71.11 39.887 95.832v-0.021c24.762 24.664 58.495 39.842 96.039 39.842 37.606 0 71.391-15.22 96.18-39.842zM232.106 168.489v-0.021c0.045 0 0.045 0 0.045 0l-0.045 0.021zM39.887-23.023c0 0 0 0 0 0.045-0.045 0-0.045 0-0.045 0l0.045-0.045zM0.11 611.795v-195.528c127.651-0.079 248.378-50.224 338.727-140.711 90.332-90.202 140.266-211.112 140.471-339.201h0.067v-0.355h196.333c-0.155 186.253-75.865 354.966-198.266 477.455-122.42 122.473-291.065 198.223-477.332 198.34zM0.467 960v-195.433c456.295-0.333 827.222-371.834 827.532-828.565h195.999c-0.133 282.287-114.866 538.033-300.288 723.584-185.488 185.486-441.066 300.293-723.243 300.414z" />
<glyph unicode="&#xe90d;" glyph-name="pinterest" d="M810.035 855.067c-70.486 67.666-168.031 104.933-274.665 104.933-162.889 0-263.073-66.771-318.432-122.781-68.227-69.026-107.351-160.679-107.351-251.464 0-113.986 47.678-201.474 127.52-234.022 5.36-2.196 10.754-3.303 16.041-3.303 16.844 0 30.19 11.021 34.814 28.7 2.695 10.143 8.94 35.164 11.655 46.026 5.813 21.451 1.116 31.769-11.559 46.707-23.092 27.323-33.846 59.633-33.846 101.683 0 124.901 93.004 257.646 265.378 257.646 136.771 0 221.733-77.735 221.733-202.868 0-78.964-17.009-152.092-47.902-205.923-21.468-37.403-59.217-81.989-117.17-81.989-25.061 0-47.572 10.294-61.777 28.241-13.419 16.966-17.841 38.883-12.445 61.724 6.097 25.807 14.41 52.727 22.455 78.753 14.674 47.532 28.545 92.426 28.545 128.244 0 61.265-37.664 102.43-93.714 102.43-71.232 0-127.038-72.349-127.038-164.709 0-45.296 12.038-79.175 17.488-92.185-8.973-38.021-62.305-264.060-72.421-306.685-5.849-24.882-41.086-221.409 17.237-237.081 65.529-17.607 124.102 173.798 130.063 195.427 4.832 17.59 21.738 84.103 32.099 124.99 31.633-30.471 82.567-51.070 132.128-51.070 93.43 0 177.454 42.043 236.595 118.378 57.358 74.040 88.948 177.236 88.948 290.564 0 88.598-38.047 175.941-104.378 239.63z" />
<glyph unicode="&#xe90e;" glyph-name="twitter" d="M1024 765.504c-38.080-16.704-78.656-27.776-120.96-33.152 43.52 25.984 76.736 66.816 92.352 116.032-40.576-24.192-85.376-41.28-133.12-50.816-38.528 41.024-93.44 66.432-153.344 66.432-116.224 0-209.792-94.336-209.792-209.984 0-16.64 1.408-32.64 4.864-47.872-174.528 8.512-328.96 92.16-432.704 219.584-18.112-31.424-28.736-67.392-28.736-106.112 0-72.704 37.44-137.152 93.248-174.464-33.728 0.64-66.816 10.432-94.848 25.856 0-0.64 0-1.472 0-2.304 0-102.016 72.768-186.752 168.192-206.272-17.088-4.672-35.712-6.912-55.040-6.912-13.44 0-27.008 0.768-39.744 3.584 27.2-83.136 104.384-144.256 196.16-146.24-71.424-55.872-162.112-89.536-260.288-89.536-17.216 0-33.728 0.768-50.24 2.88 92.992-59.968 203.2-94.208 322.048-94.208 386.304 0 597.504 320 597.504 597.376 0 9.28-0.32 18.24-0.768 27.136 41.664 29.568 76.672 66.496 105.216 108.992z" />
<glyph unicode="&#xe90f;" glyph-name="facebook-letter-logo" d="M376.354 761.682c0-25.805 0-140.984 0-140.984h-103.289v-172.396h103.289v-512.3h212.178v512.286h142.382c0 0 13.335 82.663 19.798 173.046-18.532 0-161.378 0-161.378 0s0 100.294 0 117.874c0 17.618 23.134 41.316 45.999 41.316 22.822 0 70.99 0 115.603 0 0 23.472 0 104.573 0 179.474-59.557 0-127.314 0-157.18 0-222.647 0.012-217.402-172.555-217.402-198.315z" />
<glyph unicode="&#xe910;" glyph-name="coin" d="M874.040 810.040c-96.704 96.704-225.28 149.96-362.040 149.96s-265.336-53.256-362.040-149.96c-96.702-96.704-149.96-225.28-149.96-362.040s53.258-265.336 149.96-362.040c96.704-96.704 225.28-149.96 362.040-149.96s265.336 53.256 362.040 149.96c96.702 96.704 149.96 225.28 149.96 362.040s-53.258 265.336-149.96 362.040zM512-4c-249.234 0-452 202.766-452 452s202.766 452 452 452 452-202.766 452-452-202.766-452-452-452zM544.134 478h-64.268c-36.614 0-66.4 29.786-66.4 66.398 0 36.614 29.788 66.4 66.4 66.4h128.534c16.568 0 30 13.432 30 30s-13.432 30-30 30h-66.4v66.4c0 16.568-13.432 30-30 30s-30-13.432-30-30v-66.4h-2.132c-69.698 0-126.4-56.704-126.4-126.4s56.704-126.398 126.4-126.398h64.268c36.612 0 66.398-29.788 66.398-66.4s-29.786-66.4-66.398-66.4h-128.534c-16.568 0-30-13.432-30-30s13.432-30 30-30h66.398v-66.402c0-16.568 13.432-30 30-30s30 13.432 30 30v66.402h2.134c69.696 0 126.398 56.704 126.398 126.4s-56.702 126.4-126.398 126.4z" />
<glyph unicode="&#xe911;" glyph-name="quote-left1" d="M354.459 487.381h-137.848c-16.411 0-30.363 5.742-41.852 17.23-11.482 11.488-17.23 25.436-17.23 41.852v19.683c0 43.49 15.388 80.615 46.161 111.388 30.771 30.762 67.902 46.15 111.388 46.15h39.382c10.665 0 19.892 3.899 27.691 11.691 7.794 7.796 11.691 17.024 11.691 27.691v78.776c0 10.665-3.899 19.901-11.691 27.697-7.796 7.785-17.024 11.691-27.691 11.691h-39.382c-42.671 0-83.38-8.316-122.154-24.923-38.77-16.618-72.304-39.082-100.615-67.394-28.309-28.299-50.767-61.835-67.383-100.609-16.616-38.77-24.925-79.49-24.925-122.156v-433.22c0-32.838 11.482-60.72 34.457-83.704 22.977-22.97 50.881-34.454 83.699-34.454h236.318c32.816 0 60.712 11.484 83.691 34.454 22.97 22.983 34.459 50.866 34.459 83.704v236.297c0 32.831-11.488 60.714-34.474 83.699-22.968 22.968-50.874 34.457-83.691 34.457zM989.561 452.924c-22.968 22.968-50.866 34.457-83.691 34.457h-137.846c-16.403 0-30.368 5.742-41.837 17.23-11.493 11.488-17.23 25.436-17.23 41.852v19.683c0 43.49 15.388 80.615 46.145 111.388 30.76 30.762 67.889 46.15 111.397 46.15h39.373c10.667 0 19.901 3.899 27.693 11.691 7.788 7.796 11.7 17.024 11.7 27.691v78.776c0 10.665-3.91 19.901-11.7 27.697-7.79 7.785-17.024 11.691-27.693 11.691h-39.373c-42.695 0-83.395-8.316-122.18-24.923-38.763-16.618-72.286-39.082-100.598-67.394-28.311-28.299-50.78-61.835-67.389-100.609-16.612-38.77-24.932-79.49-24.932-122.156v-433.22c0-32.838 11.493-60.72 34.461-83.704 22.97-22.97 50.868-34.454 83.691-34.454h236.305c32.825 0 60.72 11.484 83.689 34.454 22.985 22.983 34.454 50.866 34.454 83.704v236.297c0.002 32.834-11.469 60.714-34.439 83.699z" />
<glyph unicode="&#xe912;" glyph-name="shuffle" d="M895.951 256h-116.324c-40.657 0-79.437 15.251-109.156 43l-159.614 148.973 159.676 149.027c29.687 27.749 68.47 43 109.156 43h116.313v-64.001l127.997 96-127.997 96v-64.001h-116.313c-56.968 0-111.25-21.375-152.844-60.25l-369.283-344.685c-29.782-27.749-68.501-43.063-109.095-43.063-0.063 0-148.407 0-148.407 0v-63.875l148.438-0.063c56.812 0 111.031 21.375 152.719 60.25l162.747 151.896 162.817-151.957c41.625-38.875 95.907-60.25 152.844-60.25h116.324v-64.001l127.997 95.996-127.997 96.005c0.002-0.002 0.002-64.001 0.002-64.001zM148.47 639.939c40.562 0 79.281-15.251 109-43l112.692-105.18 46.891 43.762-115.895 108.168c-41.625 38.875-95.844 60.25-152.656 60.25-0.093 0-0.188 0-0.281 0l-148.221-0.061v-63.875h148.251c0.095-0.002 0.156-0.063 0.219-0.063z" />
<glyph unicode="&#xe913;" glyph-name="truck" d="M238.934 285.866c-56.474 0-102.4-45.926-102.4-102.4s45.926-102.4 102.4-102.4 102.4 45.926 102.4 102.4c0 56.474-45.928 102.4-102.4 102.4zM238.934 115.2c-37.65 0-68.266 30.618-68.266 68.266 0 37.65 30.618 68.266 68.266 68.266s68.266-30.618 68.266-68.266c0-37.648-30.618-68.266-68.266-68.266zM819.2 285.866c-56.474 0-102.4-45.926-102.4-102.4s45.926-102.4 102.4-102.4c56.474 0 102.4 45.926 102.4 102.4s-45.926 102.4-102.4 102.4zM819.2 115.2c-37.65 0-68.266 30.618-68.266 68.266 0 37.65 30.618 68.266 68.266 68.266 37.65 0 68.266-30.618 68.266-68.266s-30.616-68.266-68.266-68.266zM1021.286 380.432l-153.6 238.934c-3.14 4.882-8.55 7.834-14.354 7.834h-187.732c-9.438 0-17.066-7.646-17.066-17.066v-426.666c0-9.438 7.628-17.066 17.066-17.066h68.266v34.134h-51.2v392.53h161.348l145.852-226.884v-165.65h-85.334v-34.132h102.4c9.438 0 17.066 7.628 17.066 17.066v187.734c0.002 3.26-0.936 6.486-2.712 9.232zM750.934 405.334v119.466h136.534v34.134h-153.6c-9.438 0-17.066-7.646-17.066-17.066v-153.6c0-9.438 7.628-17.066 17.066-17.066h256v34.134h-238.934zM665.6 746.666h-648.534c-9.42 0-17.066-7.646-17.066-17.066v-546.134c0-9.438 7.646-17.066 17.066-17.066h136.534v34.134h-119.466v512h614.4v-512h-324.268v-34.134h341.334c9.438 0 17.066 7.628 17.066 17.066v546.134c0 9.42-7.628 17.066-17.066 17.066zM17.066 268.8h102.4v-34.134h-102.4v34.134zM358.4 268.8h290.134v-34.134h-290.134v34.134zM938.666 268.8h68.266v-34.134h-68.266v34.134zM68.266 678.4h597.334v-34.134h-597.334v34.134zM221.866 200.534h34.134v-34.134h-34.134v34.134zM802.134 200.534h34.134v-34.134h-34.134v34.134zM68.266 814.934h238.934v-34.134h-238.934v34.134zM0 814.934h34.134v-34.134h-34.134v34.134z" />
<glyph unicode="&#xe914;" glyph-name="snapchat" d="M1000.887 209.287c-129.038 21.265-187.83 151.769-194.11 166.583-0.12 0.29-0.614 1.332-0.75 1.638-6.468 13.142-8.072 23.807-4.694 31.675 6.776 16.025 35.481 25.105 53.86 30.923 5.172 1.672 10.018 3.208 13.876 4.744 37.171 14.678 55.824 33.433 55.43 55.788-0.358 17.731-14.268 34.013-34.867 41.301-7.1 2.97-15.548 4.59-23.773 4.59-5.684 0-14.132-0.802-22.203-4.574-15.736-7.356-29.729-11.316-40.311-11.776-4.71 0.188-8.278 0.972-10.854 1.844 0.324 5.58 0.7 11.316 1.058 17.169l0.188 2.986c4.386 69.612 9.83 156.241-13.346 208.155-68.538 153.663-213.991 165.609-256.948 165.609l-20.035-0.188c-42.871 0-188.052-11.93-256.522-165.507-23.227-52.034-17.731-138.628-13.328-208.223 0.426-6.844 0.854-13.516 1.228-20.019-2.936-1.006-7.168-1.894-12.92-1.894-12.322 0-27.083 3.994-43.861 11.844-24.251 11.366-68.588-3.822-74.58-35.293-3.26-17.031 3.602-41.591 54.764-61.814 3.976-1.57 8.978-3.174 15.122-5.12 17.151-5.444 45.857-14.54 52.648-30.531 3.362-7.902 1.758-18.567-5.324-33.023-2.526-5.888-63.298-144.243-197.524-166.343-13.926-2.286-23.859-14.644-23.073-28.705 0.222-3.908 1.126-7.834 2.798-11.794 11.282-26.385 54.236-44.697 135.096-57.53 1.774-4.59 3.84-14.012 5.018-19.473 1.706-7.8 3.498-15.854 5.94-24.199 2.458-8.448 9.762-22.613 30.889-22.613 7.15 0 15.428 1.622 24.421 3.362 12.936 2.542 30.617 5.99 52.546 5.99 12.168 0 24.831-1.092 37.649-3.208 24.183-4.010 45.397-19.011 70.006-36.403 36.231-25.617 69.17-45.209 135.044-45.209 1.74 0 3.464 0.052 5.154 0.17 2.44-0.12 4.898-0.17 7.39-0.17 57.7 0 108.489 15.24 150.983 45.259 23.483 16.621 45.669 32.323 69.868 36.351 12.852 2.116 25.531 3.208 37.699 3.208 21.025 0 37.801-2.696 52.768-5.632 10.12-1.996 18.039-2.952 25.343-2.952 14.746 0 25.599 8.106 29.747 22.253 2.39 8.226 4.182 16.041 5.922 24.029 0.922 4.25 3.14 14.422 5.018 19.319 79.7 12.68 120.402 30.275 131.666 56.592 1.69 3.788 2.68 7.8 2.952 12.066 0.756 14.068-9.144 26.423-23.069 28.745z" />
<glyph unicode="&#xe915;" glyph-name="magnifying-glass" d="M1015.031-11.778l-248.848 248.848c66.753 76.743 107.168 176.873 107.168 286.311 0 240.901-195.945 436.619-436.619 436.619-240.901 0-436.619-195.945-436.619-436.619s195.945-436.619 436.619-436.619c109.439 0 209.568 40.415 286.311 107.168l248.848-248.848c5.903-5.903 13.85-9.082 21.57-9.082s15.667 2.952 21.57 9.082c11.807 11.807 11.807 31.333 0 43.14zM61.19 523.381c0 207.071 168.472 375.315 375.315 375.315 207.071 0 375.315-168.472 375.315-375.315s-168.245-375.542-375.315-375.542c-206.843 0-375.315 168.472-375.315 375.542z" />
<glyph unicode="&#xe916;" glyph-name="minus" d="M213.333 426.666h597.333c23.552 0 42.667 19.115 42.667 42.667s-19.115 42.667-42.667 42.667h-597.333c-23.552 0-42.667-19.115-42.667-42.667s19.115-42.667 42.667-42.667z" />
<glyph unicode="&#xe917;" glyph-name="plus" d="M213.333 426.666h256v-256c0-23.552 19.115-42.667 42.667-42.667s42.667 19.115 42.667 42.667v256h256c23.552 0 42.667 19.115 42.667 42.667s-19.115 42.667-42.667 42.667h-256v256c0 23.552-19.115 42.667-42.667 42.667s-42.667-19.115-42.667-42.667v-256h-256c-23.552 0-42.667-19.115-42.667-42.667s19.115-42.667 42.667-42.667z" />
<glyph unicode="&#xe918;" glyph-name="heart1" d="M512 807.936l-31.232 30.72c-50.338 47.679-118.487 76.997-193.485 76.997-155.523 0-281.6-126.077-281.6-281.6 0-74.87 29.219-142.916 76.875-193.356l-0.126 0.135 429.568-429.568 429.568 430.080c47.53 50.306 76.749 118.352 76.749 193.221 0 155.523-126.077 281.6-281.6 281.6-74.997 0-143.147-29.318-193.613-77.118l0.129 0.121-31.232-31.232z" />
<glyph unicode="&#xe919;" glyph-name="share-alt" horiz-adv-x="878" d="M694.857 365.714c101.143 0 182.857-81.714 182.857-182.857s-81.714-182.857-182.857-182.857-182.857 81.714-182.857 182.857c0 6.286 0.571 13.143 1.143 19.429l-205.714 102.857c-32.571-30.286-76.571-49.143-124.571-49.143-101.143 0-182.857 81.714-182.857 182.857s81.714 182.857 182.857 182.857c48 0 92-18.857 124.571-49.143l205.714 102.857c-0.571 6.286-1.143 13.143-1.143 19.429 0 101.143 81.714 182.857 182.857 182.857s182.857-81.714 182.857-182.857-81.714-182.857-182.857-182.857c-48 0-92 18.857-124.571 49.143l-205.714-102.857c0.571-6.286 1.143-13.143 1.143-19.429s-0.571-13.143-1.143-19.429l205.714-102.857c32.571 30.286 76.571 49.143 124.571 49.143z" />
<glyph unicode="&#xe91a;" glyph-name="forbidden" d="M874.21 810.21c-199.713 199.713-524.707 199.713-724.421 0-199.733-199.733-199.733-524.688 0-724.421 99.847-99.847 231.038-149.809 362.21-149.809s262.344 49.943 362.21 149.809c199.713 199.733 199.713 524.707 0 724.421zM177.648 782.352c92.183 92.183 213.268 138.284 334.352 138.284 114.899 0 229.502-42.043 319.714-125.045l-667.286-667.286c-170.476 185.252-166.418 474.41 13.22 654.047zM846.352 113.667c-179.657-179.657-468.795-183.716-654.067-13.22l667.286 667.267c170.496-185.252 166.437-474.41-13.22-654.047z" />
<glyph unicode="&#xe91b;" glyph-name="grid-large" d="M0 960h269.474v-269.474h-269.474v269.474zM377.263 960h269.474v-269.474h-269.474v269.474zM754.526 960h269.474v-269.474h-269.474v269.474zM0 582.737h269.474v-269.474h-269.474v269.474zM377.263 582.737h269.474v-269.474h-269.474v269.474zM754.526 582.737h269.474v-269.474h-269.474v269.474zM0 205.474h269.474v-269.474h-269.474v269.474zM377.263 205.474h269.474v-269.474h-269.474v269.474zM754.526 205.474h269.474v-269.474h-269.474v269.474z" />
<glyph unicode="&#xe91c;" glyph-name="grid-medium" d="M0 960h215.579v-215.579h-215.579v215.579zM269.474 960h215.579v-215.579h-215.579v215.579zM538.947 960h215.579v-215.579h-215.579v215.579zM808.421 960h215.579v-215.579h-215.579v215.579zM0 690.526h215.579v-215.579h-215.579v215.579zM269.474 690.526h215.579v-215.579h-215.579v215.579zM538.947 690.526h215.579v-215.579h-215.579v215.579zM808.421 690.526h215.579v-215.579h-215.579v215.579zM0 151.579h215.579v-215.579h-215.579v215.579zM269.474 151.579h215.579v-215.579h-215.579v215.579zM538.947 151.579h215.579v-215.579h-215.579v215.579zM808.421 151.579h215.579v-215.579h-215.579v215.579zM0 421.053h215.579v-215.579h-215.579v215.579zM269.474 421.053h215.579v-215.579h-215.579v215.579zM538.947 421.053h215.579v-215.579h-215.579v215.579zM808.421 421.053h215.579v-215.579h-215.579v215.579z" />
<glyph unicode="&#xe91d;" glyph-name="grid-very-large" d="M377.263 852.211v-269.474h-269.474v269.474h269.474zM485.053 960h-485.053v-485.053h485.053v485.053zM916.211 852.211v-269.474h-269.474v269.474h269.474zM1024 960h-485.053v-485.053h485.053v485.053zM377.263 313.263v-269.474h-269.474v269.474h269.474zM485.053 421.053h-485.053v-485.053h485.053v485.053zM916.211 313.263v-269.474h-269.474v269.474h269.474zM1024 421.053h-485.053v-485.053h485.053v485.053z" />
<glyph unicode="&#xe91e;" glyph-name="sold" d="M915.183 501.172h-33.566l-295.14 276.133c5.271 10.908 8.009 22.872 7.991 34.989-0.027 44.913-36.465 81.297-81.378 81.27s-81.297-36.465-81.27-81.378c-0.018-12.081 2.72-24 7.991-34.863l-295.14-276.151h-33.566c-60.635 0-111.105-49.906-111.105-110.532v-277.189c0-60.635 50.47-109.387 111.105-109.387h804.078c28.975-0.054 56.769 11.472 77.208 32.018 20.429 20.537 31.812 48.394 31.606 77.369v277.189c0 60.626-48.179 110.532-108.814 110.532zM513.144 856.822c24.671 0 44.671-20 44.671-44.671s-20-44.671-44.671-44.671-44.671 20-44.671 44.671c0.027 24.662 20.009 44.644 44.671 44.671zM462.818 748.626c29.414-23.57 71.266-23.544 100.653 0.072l264.527-247.525h-629.708zM987.344 114.023c0-40.483-32.823-73.306-73.306-73.306h-804.078c-40.483 0-73.306 32.823-73.306 73.306v277.189c0 40.483 32.823 73.306 73.306 73.306h804.078c40.483 0 73.306-32.823 73.306-73.306zM274.21 295.177c0 7.096 6.649 13.745 22.908 13.745 18.783 0 23.141-8.707 31.382-8.707 10.085 0 14.21 12.6 14.21 18.783 0 17.87-33.45 20.161-45.593 20.161-28.635 0-58.64-13.056-58.64-47.418 0-53.611 72.617-48.796 72.617-76.519 0-10.989-11.687-15.114-22.219-15.114-21.306 0-28.179 16.949-38.944 16.949-8.707 0-15.579-11.454-15.579-19.239 0-15.123 25.199-29.781 55.203-29.781 33.217 0 57.271 17.87 57.271 50.854 0 57.727-72.617 53.378-72.617 76.286zM440.867 337.79c-31.615 0-56.009-14.658-56.009-54.067v-60.707c0-39.4 24.394-54.058 56.009-54.058s56.241 14.658 56.241 54.058v60.707c0 39.4-24.626 54.067-56.241 54.067zM462.746 223.016c0-15.803-7.902-22.908-20.734-22.908s-20.501 7.105-20.501 22.908v60.707c0 15.812 7.678 22.908 20.501 22.908 12.832 0 20.734-7.096 20.734-22.908zM631.81 201.074h-52.233v125.942c0 7.562-9.396 10.774-18.327 10.774s-18.327-3.213-18.327-10.774v-145.691c0-7.329 8.707-10.022 16.492-10.022h72.394c6.872 0 10.309 7.096 10.309 14.89 0 7.785-3.436 14.881-10.309 14.881zM735.586 338.524h-40.555c-9.387 0-14.658-5.781-14.658-11.508v-145.924c0-5.727 5.271-9.79 14.658-9.79h40.555c31.606 0 57.038 13.691 57.038 53.092v59.338c0 39.391-25.432 54.792-57.038 54.792zM755.971 224.385c0-15.579-7.562-23.311-20.385-23.311h-20.85v105.378h20.85c12.823 0 20.385-7.15 20.385-22.729z" />
<glyph unicode="&#xe91f;" glyph-name="embarrassed" d="M340.452 451.456c15.174 0 28.91 6.121 38.903 16.017 10.124 10.020 16.401 23.919 16.401 39.286 0 30.541-24.762 55.304-55.304 55.304s-55.304-24.762-55.304-55.304c0-7.186 1.414-14.030 3.909-20.331 8.109-20.473 28.039-34.973 51.394-34.973zM734.037 486.429c2.496 6.298 3.909 13.145 3.909 20.331 0 30.541-24.762 55.304-55.304 55.304s-55.304-24.762-55.304-55.304c0-15.367 6.277-29.266 16.401-39.29 9.993-9.892 23.729-16.014 38.903-16.014 23.355 0 43.285 14.5 51.394 34.973zM396.333 247.528h228.127v-55.304h-228.127v55.304zM1024 696.378c0 32.93-20.559 74.103-62.852 125.871-29.086 35.602-57.799 62.908-59.002 64.052l-19.024 18.032-19.021-18.029c-0.878-0.83-16.238-15.454-35.695-36.984-87.193 68.988-197.295 110.23-316.855 110.23-282.069 0-511.551-229.479-511.551-511.551 0-282.069 229.482-511.551 511.551-511.551s511.551 229.482 511.551 511.551c0 57.426-9.516 112.677-27.047 164.251 17.545 23.49 27.946 52.618 27.946 84.127zM967.798 448c0-251.576-204.671-456.247-456.247-456.247-125.318 0-238.991 50.796-321.528 132.867-32.961 32.774-60.941 70.547-82.727 112.059-33.182 63.215-51.992 135.107-51.992 211.322 0 251.576 204.671 456.247 456.247 456.247 106.093 0 203.845-36.4 281.422-97.365-1.569-2.060-3.111-4.103-4.607-6.121-30.967-41.83-46.13-76.146-46.13-104.378 0-77.684 63.202-140.886 140.886-140.886 18.482 0 36.124 3.615 52.31 10.11 5.171 2.081 10.203 4.421 15.049 7.075 11.278-39.646 17.317-81.472 17.317-124.682zM883.121 610.8c-47.188 0-85.582 38.391-85.582 85.582 0 29.978 45.283 88.741 85.593 130.817 40.299-42.034 85.565-100.766 85.565-130.817 0-47.191-38.391-85.582-85.575-85.582z" />
<glyph unicode="&#xe920;" glyph-name="smiley" d="M512 896c249.6 0 448-198.4 448-448s-198.4-448-448-448-448 198.4-448 448 198.4 448 448 448zM512 960c-281.6 0-512-230.4-512-512s230.4-512 512-512 512 230.4 512 512-230.4 512-512 512v0zM512 115.2c-128 0-243.2 76.8-294.4 198.4l57.6 25.6c38.4-96 134.4-153.6 236.8-153.6s198.4 64 236.8 153.6l57.6-25.6c-51.2-128-166.4-198.4-294.4-198.4zM448 576c0-35.328-28.672-64-64-64s-64 28.672-64 64c0 35.328 28.672 64 64 64s64-28.672 64-64zM704 576c0-35.328-28.672-64-64-64s-64 28.672-64 64c0 35.328 28.672 64 64 64s64-28.672 64-64z" />
<glyph unicode="&#xe921;" glyph-name="thumbs-up" d="M954.447 387.688c20.105 30.367 30.145 63.794 30.145 100.305 0 42.26-15.572 78.965-46.743 110.175-31.186 31.177-68.111 46.762-110.772 46.762h-108.308c19.687 40.611 29.548 80 29.548 118.147 0 48.002-7.199 86.151-21.545 114.459-14.361 28.317-35.287 49.131-62.776 62.47-27.496 13.333-58.459 19.993-92.919 19.993-20.933 0-39.387-7.589-55.386-22.773-17.637-17.228-30.356-39.387-38.147-66.464-7.796-27.069-14.055-53.021-18.769-77.842-4.714-24.819-12.003-42.357-21.844-52.612-20.107-21.743-42.053-48.006-65.848-78.771-41.434-53.737-69.54-85.535-84.302-95.385h-168.608c-21.743 0-40.309-7.703-55.694-23.075-15.378-15.387-23.073-33.951-23.073-55.696v-393.83c0-21.745 7.686-40.303 23.073-55.69 15.393-15.387 33.951-23.086 55.694-23.086h177.214c9.027 0 37.328-8.203 84.918-24.614 50.463-17.644 94.872-31.076 133.226-40.309 38.359-9.233 77.23-13.852 116.617-13.852h79.379c57.841 0 104.4 16.523 139.685 49.551 35.272 33.028 52.715 78.051 52.31 135.075 24.614 31.591 36.919 68.102 36.919 109.532 0 9.020-0.606 17.84-1.843 26.463 15.583 27.476 23.394 57.015 23.394 88.606-0.006 14.771-1.849 28.931-5.546 42.46zM185.249 105.235c-7.794-7.789-17.023-11.699-27.69-11.699-10.669 0-19.9 3.908-27.696 11.699-7.792 7.787-11.691 17.021-11.691 27.696 0 10.665 3.89 19.892 11.691 27.69 7.804 7.796 17.027 11.693 27.696 11.693 10.667 0 19.896-3.897 27.69-11.693 7.796-7.796 11.695-17.023 11.695-27.69 0-10.675-3.899-19.909-11.695-27.696zM892.623 437.505c-8.822-18.868-19.799-28.509-32.925-28.914 6.151-6.977 11.283-16.73 15.387-29.231 4.099-12.516 6.136-23.896 6.136-34.158 0-28.293-10.856-52.709-32.602-73.215 7.393-13.122 11.081-27.282 11.081-42.454 0-15.18-3.584-30.257-10.768-45.228-7.171-14.958-16.922-25.73-29.224-32.291 2.050-12.305 3.067-23.795 3.067-34.46 0-68.507-39.387-102.762-118.162-102.762h-74.437c-53.754 0-123.895 14.965-210.465 44.919-2.054 0.819-7.994 2.981-17.846 6.462s-17.131 6.048-21.851 7.684c-4.72 1.653-11.893 4.011-21.54 7.080-9.645 3.084-17.43 5.343-23.383 6.772-5.944 1.431-12.719 2.765-20.301 3.998-7.587 1.231-14.051 1.843-19.383 1.843h-19.691v393.815h19.691c6.563 0 13.844 1.851 21.844 5.535 7.998 3.694 16.208 9.231 24.616 16.618 8.412 7.386 16.303 14.667 23.692 21.851 7.386 7.177 15.59 16.202 24.618 27.069 9.024 10.876 16.1 19.59 21.232 26.155 5.125 6.563 11.585 14.977 19.381 25.233 7.792 10.253 12.514 16.409 14.154 18.463 22.56 27.892 38.354 46.558 47.379 55.998 16.82 17.635 29.024 40.096 36.613 67.378 7.598 27.287 13.852 53.030 18.758 77.23 4.918 24.202 12.723 41.643 23.403 52.31 39.374 0 65.637-9.637 78.76-28.92 13.122-19.28 19.687-49.025 19.687-89.229 0-24.202-9.854-57.123-29.55-98.76-19.687-41.641-29.524-74.359-29.524-98.152h216.601c20.534 0 38.781-7.893 54.774-23.696 16.006-15.792 24.017-34.147 24.017-55.075-0.006-14.357-4.418-30.974-13.238-49.868z" />
<glyph unicode="&#xe922;" glyph-name="underclothes" d="M257.184 452.496c-10.416-8.816-17.184-21.808-17.184-36.496 0-26.464 21.536-48 48-48h448c26.464 0 48 21.536 48 48 0 14.672-6.768 27.68-17.184 36.48 41.392 34.768 65.184 85.28 65.184 139.52 0 55.728-24.96 107.664-68.464 142.448l-11.536 9.232v152.32c0 26.464-21.536 48-48 48h-32c-26.464 0-48-21.536-48-48v-96c0-12.224-2.048-24.032-5.824-35.36-5.808 2.032-11.936 3.36-18.432 3.36-7.152 0-14.176-1.344-20.896-4.016l-44.464-17.792c-6.704 3.584-14.256 5.808-22.384 5.808s-15.68-2.224-22.384-5.808l-44.496 17.792c-6.688 2.672-13.712 4.016-20.864 4.016-6.48 0-12.624-1.328-18.416-3.36-3.792 11.328-5.84 23.136-5.84 35.36v96c0 26.464-21.536 48-48 48h-32c-26.464 0-48-21.536-48-48v-152.32l-11.52-9.216c-43.52-34.8-68.48-86.736-68.48-142.464 0-54.256 23.792-104.768 65.184-139.504zM736 400h-448c-8.816 0-16 7.168-16 16s7.184 16 16 16h448c8.816 0 16-7.168 16-16s-7.184-16-16-16zM590.72 734.272c2.912 1.152 5.952 1.728 9.024 1.728 13.376 0 24.256-10.88 24.256-24.256v-15.504c0-13.36-10.88-24.24-24.256-24.24-3.088 0-6.128 0.576-8.992 1.728l-33.92 13.568c1.952 5.232 3.168 10.816 3.168 16.704 0 5.904-1.216 11.488-3.168 16.704zM512 720c8.816 0 16-7.168 16-16s-7.184-16-16-16-16 7.168-16 16 7.184 16 16 16zM433.248 734.272l33.92-13.568c-1.952-5.232-3.168-10.816-3.168-16.704 0-5.904 1.216-11.488 3.168-16.704l-33.888-13.568c-2.912-1.152-5.952-1.728-9.024-1.728-13.376 0-24.256 10.88-24.256 24.256v15.504c0 13.36 10.88 24.24 24.256 24.24 3.072 0 6.112-0.576 8.992-1.728zM280.464 709.488l23.536 18.832v167.68c0 8.832 7.184 16 16 16h32c8.816 0 16-7.168 16-16v-96c0-19.184 3.872-37.6 11.12-55.008-6.912-9.344-11.12-20.768-11.12-33.248v-15.504c0-31.008 25.232-56.24 56.256-56.24 7.152 0 14.176 1.344 20.896 4.016l44.464 17.792c1.504-0.8 2.976-1.648 4.56-2.288-3.632-13.488-12.272-28.368-21.936-44.992-17.92-30.8-40.24-69.136-40.24-118.528h32c0 40.768 19.072 73.536 35.888 102.432 2.96 5.088 5.84 10.096 8.624 15.088 4.896-11.504 10.592-22.016 16.032-31.936 10.448-19.008 19.456-35.408 19.456-53.584h32c0 26.368-11.888 48.048-23.392 68.992-10.32 18.8-20.864 38.192-23.76 62.224 1.936 0.736 3.744 1.632 5.552 2.592l44.496-17.792c6.672-2.672 13.696-4.016 20.848-4.016 31.024 0 56.256 25.232 56.256 56.256v15.504c0 12.48-4.224 23.92-11.12 33.248 7.152 17.36 11.12 36.112 11.12 54.992v96c0 8.832 7.184 16 16 16h32c8.816 0 16-7.168 16-16v-167.68l23.536-18.848c35.888-28.688 56.464-71.52 56.464-117.472s-20.576-88.784-56.464-117.488l-13.152-10.512h-436.768l-13.152 10.528c-35.888 28.688-56.464 71.52-56.464 117.472s20.576 88.784 56.464 117.488zM336 112c-26.464 0-48-21.536-48-48s21.536-48 48-48 48 21.536 48 48-21.536 48-48 48zM336 48c-8.816 0-16 7.168-16 16s7.184 16 16 16 16-7.168 16-16-7.184-16-16-16zM784 257.056v78.944h-544v-78.944l-31.456-235.968c-0.368-2.688-0.544-5.392-0.544-8.080 0-33.632 27.376-61.008 61.008-61.008h143.84c28.048 0 52.384 19.008 59.2 46.224l36.448 145.776h7.008l36.448-145.776c6.8-27.216 31.152-46.224 59.2-46.224h143.84c33.632 0 61.008 27.376 61.008 61.008 0 2.688-0.176 5.392-0.544 8.064zM272 304h480v-32h-480zM754.992-16h-143.84c-13.328 0-24.912 9.024-28.144 21.968l-42.512 170.032h-56.992l-42.512-170.032c-3.232-12.944-14.8-21.968-28.144-21.968h-143.84c-16 0-29.008 13.008-29.008 29.008 0 1.28 0.080 2.544 0.256 3.84l29.744 223.152h483.984l29.744-223.152c0.192-1.28 0.272-2.544 0.272-3.84 0-16-13.008-29.008-29.008-29.008z" />
<glyph unicode="&#xe923;" glyph-name="raincoat" d="M512 608v0c45.756 0.154 84.352 30.636 96.746 72.388l0.182 0.716 15.536 54.4c2.463 8.298 3.88 17.831 3.88 27.696 0 55.656-45.107 100.777-100.757 100.8h-31.17c-55.667-0.005-100.792-45.133-100.792-100.8 0-9.865 1.417-19.398 4.059-28.409l-0.179 0.713 15.536-54.4c12.579-42.478 51.191-72.965 96.944-73.104h0.016zM441.488 804.64c12.596 16.687 32.392 27.36 54.68 27.36 0.087 0 0.174 0 0.261 0h31.155c37.993-0.006 68.79-30.806 68.79-68.8 0-6.73-0.966-13.235-2.768-19.382l0.122 0.486-15.536-54.4c-8.579-29.004-34.943-49.82-66.182-49.904h-0.010c-31.236 0.099-57.584 20.91-66.036 49.415l-0.124 0.489-15.536 54.4c-1.722 5.707-2.714 12.265-2.714 19.056 0 15.587 5.225 29.954 14.018 41.445l-0.121-0.164zM352.384 620.528c1.535-7.362 7.971-12.814 15.68-12.814 8.837 0 16 7.163 16 16 0 1.334-0.163 2.629-0.471 3.868l0.023-0.11-20.8 93.28c-2.181 9.39-3.431 20.173-3.431 31.248 0 79.529 64.471 144 144 144 0.025 0 0.050 0 0.075 0h17.084c0.002 0 0.005 0 0.007 0 79.529 0 144-64.471 144-144 0-11.075-1.25-21.858-3.617-32.215l0.186 0.967-20.8-93.28c-0.242-1.043-0.381-2.24-0.381-3.47 0-7.605 5.306-13.971 12.417-15.597l0.107-0.021c1.057-0.244 2.27-0.384 3.516-0.384 0.007 0 0.014 0 0.021 0h-0.001c7.598 0.009 13.955 5.313 15.579 12.421l0.021 0.107 20.8 93.296c2.664 11.472 4.19 24.646 4.19 38.176 0 97.202-78.798 176-176 176-0.016 0-0.032 0-0.049 0h-17.086c-97.201-0.001-175.998-78.799-175.998-176 0-13.53 1.527-26.704 4.417-39.358l-0.227 1.182zM640 32h32c35.346 0 64 28.654 64 64v0 48c0 7.456-5.1 13.72-12.001 15.496l-0.111 0.024-128 32c-1.2 0.323-2.578 0.508-3.999 0.508-8.837 0-16-7.163-16-16 0-7.496 5.155-13.788 12.113-15.524l0.11-0.023 115.888-28.976v-35.504c0-17.673-14.327-32-32-32v0h-32c-17.673 0-32 14.327-32 32v0 16c0 8.837-7.163 16-16 16s-16-7.163-16-16v0-16c0-35.346 28.654-64 64-64v0zM288 144v-48c0-35.346 28.654-64 64-64v0h32c35.346 0 64 28.654 64 64v0 80c0 8.836-7.164 16-16 16-1.381 0-2.721-0.175-3.999-0.504l0.111 0.024-128-32c-7.012-1.8-12.112-8.064-12.112-15.52v0zM320 131.504l96 24v-59.504c0-17.673-14.327-32-32-32v0h-32c-17.673 0-32 14.327-32 32v0zM976 336c-8.837 0-16-7.163-16-16v0-64h-96v160c-0.006 3.897-1.395 7.468-3.702 10.251l0.022-0.027-106.192 128c-2.956 3.543-7.372 5.781-12.311 5.781-8.837 0-16-7.163-16-16 0-0.588 0.032-1.168 0.093-1.74l-0.006 0.071 56.352-542.336h-254.256v560h-0.176c0.001 0.077 0.002 0.168 0.002 0.26 0 4.071-1.537 7.783-4.063 10.587l0.013-0.014c-2.934 3.187-7.127 5.177-11.784 5.177-2.141 0-4.184-0.421-6.051-1.184l0.107 0.039-80-32c-5.945-2.424-10.059-8.16-10.059-14.856 0-2.61 0.625-5.074 1.733-7.251l-0.042 0.091 32-64c2.682-5.296 8.084-8.863 14.32-8.863s11.638 3.567 14.278 8.772l0.042 0.091 17.68 35.376v-492.224h-254.064l61.968 542.176c0.067 0.55 0.105 1.186 0.105 1.832 0 8.837-7.163 16-16 16-4.793 0-9.093-2.107-12.026-5.446l-0.016-0.018-112-128c-2.464-2.8-3.967-6.496-3.968-10.544v0-160h-96v171.024l135.040 196.432c20.468 29.483 54.152 48.544 92.288 48.544v0c8.837 0 16 7.163 16 16s-7.163 16-16 16v0c-0.002 0-0.005 0-0.008 0-49.027 0-92.331-24.501-118.337-61.926l-0.311-0.474-137.856-200.544c-1.761-2.532-2.814-5.671-2.816-9.055v-192.001c0-8.837 7.163-16 16-16v0-48c0-8.837 7.163-16 16-16v0h96c8.837 0 16 7.163 16 16s-7.163 16-16 16v0h-80v32h96c8.837 0 16 7.163 16 16v0 169.984l74.288 84.896-58.192-509.056c-0.066-0.547-0.104-1.181-0.104-1.824 0-8.837 7.163-16 16-16 0.003 0 0.006 0 0.009 0h576c0.024 0 0.052 0 0.080 0 8.837 0 16 7.163 16 16 0 0.564-0.029 1.12-0.086 1.669l0.006-0.069-52.8 507.52 68.8-82.896v-170.224c0-8.837 7.163-16 16-16v0-48c0-8.837 7.163-16 16-16v0h96c8.837 0 16 7.163 16 16v0 48c8.837 0 16 7.163 16 16v0 80c0 8.837-7.163 16-16 16v0zM464 499.776l-9.92 19.824 24.784 9.92zM944 192h-64v32h64zM989.184 441.056l-137.856 200.544c-26.317 37.899-69.621 62.4-118.648 62.4-0.003 0-0.005 0-0.008 0v0c-8.837 0-16-7.163-16-16s7.163-16 16-16v0c38.136 0 71.82-19.061 92.046-48.175l0.242-0.369 135.040-196.432v-43.024c0-8.837 7.163-16 16-16s16 7.163 16 16v0 48c-0.002 3.385-1.055 6.524-2.851 9.109l0.035-0.053z" />
<glyph unicode="&#xe924;" glyph-name="skirt" d="M802.133 925.867c0 18.851-15.282 34.133-34.133 34.133h-512c-18.851 0-34.133-15.282-34.133-34.133v-81.237c-113.117-242.384-176.931-504.834-187.733-772.096-0.205-5.521 2.275-10.799 6.656-14.165 6.315-4.267 161.792-122.368 471.211-122.368h35.84c285.355 8.704 429.227 117.419 435.371 122.197 4.431 3.401 6.917 8.756 6.656 14.336-10.802 267.262-74.616 529.712-187.733 772.096zM768 857.6h-204.8v68.267h204.8zM256 925.867h273.067v-68.267h-273.067zM68.267 81.067c11.903 256.85 73.452 508.961 181.248 742.4h99.84c-93.355-94.379-109.568-180.907-110.421-185.003-1.508-9.426 4.91-18.289 14.336-19.797s18.289 4.91 19.797 14.336c0 0 12.288 69.632 85.333 149.504-22.349-86.993-33.815-176.423-34.133-266.24 0-9.426 7.641-17.067 17.067-17.067s17.067 7.641 17.067 17.067c-0.138 104.157 15.514 207.734 46.421 307.2h124.245v-853.333h-17.067c-261.291 0-409.6 88.917-443.733 110.933zM563.2-28.672v852.139h55.979c30.944-99.458 46.596-203.040 46.421-307.2 0-9.426 7.641-17.067 17.067-17.067s17.067 7.641 17.067 17.067c-0.008 89.773-11.129 179.199-33.109 266.24 71.68-79.701 84.48-148.821 84.48-149.675 1.555-9.426 10.457-15.806 19.883-14.251s15.806 10.457 14.251 19.883c0 4.096-17.067 90.624-110.251 185.003h99.84c107.76-233.434 169.197-485.561 180.907-742.4-30.891-20.48-162.133-99.157-392.533-109.739zM494.933 755.2c0-9.426-7.641-17.067-17.067-17.067s-17.067 7.641-17.067 17.067c0 9.426 7.641 17.067 17.067 17.067s17.067-7.641 17.067-17.067zM494.933 618.667c0-9.426-7.641-17.067-17.067-17.067s-17.067 7.641-17.067 17.067c0 9.426 7.641 17.067 17.067 17.067s17.067-7.641 17.067-17.067zM494.933 482.133c0-9.426-7.641-17.067-17.067-17.067s-17.067 7.641-17.067 17.067c0 9.426 7.641 17.067 17.067 17.067s17.067-7.641 17.067-17.067zM494.933 345.6c0-9.426-7.641-17.067-17.067-17.067s-17.067 7.641-17.067 17.067c0 9.426 7.641 17.067 17.067 17.067s17.067-7.641 17.067-17.067zM494.933 209.067c0-9.426-7.641-17.067-17.067-17.067s-17.067 7.641-17.067 17.067c0 9.426 7.641 17.067 17.067 17.067s17.067-7.641 17.067-17.067zM494.933 72.533c0-9.426-7.641-17.067-17.067-17.067s-17.067 7.641-17.067 17.067c0 9.426 7.641 17.067 17.067 17.067s17.067-7.641 17.067-17.067z" />
<glyph unicode="&#xe925;" glyph-name="equipment" d="M552.649 537.89c13.012 15.834 10.725 39.305-5.11 52.32-2.642 2.171-5.509 3.878-8.492 5.205l7.134 8.677c6.308 7.67 9.247 17.336 8.284 27.218s-5.721 18.797-13.391 25.102c-6.878 5.656-15.2 8.414-23.484 8.431-1.662 8.41-6.141 15.923-12.851 21.439-14.674 12.066-35.915 10.953-49.312-1.894-1.935 2.785-4.246 5.332-6.936 7.543-15.828 13.012-39.301 10.728-52.32-5.11l-89.61-109.001c-0.003-0.003-0.003-0.007-0.007-0.010l-23.863-29.027-6.144 62.921c-1.43 14.599-11.998 26.6-26.293 29.867-8.878 2.028-17.988 0.478-25.675-4.359-7.697-4.837-13.049-12.38-15.070-21.241l-49.364-216.248-47.739-58.068c-4.789-5.823-3.949-14.428 1.877-19.217l145.333-119.48c2.454-2.017 5.519-3.106 8.67-3.106 0.44 0 0.884 0.020 1.328 0.065 3.604 0.355 6.919 2.123 9.219 4.919l184.19 224.051c0.007 0 89.624 109.005 89.624 109.005zM266.417 232.718l-124.239 102.141 32.444 39.465 124.239-102.141zM187.931 398.729l48.2 211.162c0.539 2.362 2.096 3.642 2.976 4.195s2.717 1.406 5.069 0.86c2.826-0.642 4.912-3.014 5.192-5.898l9.346-95.724c0.536-5.495 4.335-10.127 9.615-11.735 5.274-1.604 11.015 0.123 14.52 4.393l47.848 58.201c0.003 0.003 0.003 0.007 0.007 0.010l86.559 105.291c3.454 4.202 9.684 4.813 13.885 1.355 2.034-1.673 3.297-4.038 3.553-6.663 0.256-2.621-0.526-5.188-2.202-7.223l-69.693-84.78c-0.003-0.003-0.003-0.007-0.007-0.010l-6.629-8.066c-4.789-5.827-3.949-14.428 1.877-19.217 2.54-2.089 5.612-3.106 8.663-3.106 3.942 0 7.854 1.7 10.554 4.983l96.246 117.074c3.454 4.205 9.687 4.809 13.885 1.355 2.034-1.673 3.297-4.038 3.553-6.663 0.256-2.621-0.526-5.188-2.202-7.223-0.003-0.003-0.003-0.007-0.007-0.010l-89.603-108.995c-4.789-5.827-3.949-14.428 1.877-19.217 5.82-4.785 14.425-3.949 19.217 1.877l89.61 108.998c3.454 4.202 9.684 4.813 13.885 1.355 2.034-1.673 3.297-4.038 3.553-6.663 0.256-2.621-0.526-5.188-2.202-7.223l-29.856-36.318c-0.003-0.007-0.010-0.010-0.014-0.017-0.003-0.003-0.003-0.007-0.007-0.010l-59.733-72.66c-4.789-5.827-3.949-14.428 1.877-19.217 2.54-2.089 5.612-3.106 8.663-3.106 3.942 0 7.854 1.7 10.554 4.983l59.737 72.663s0 0 0.003 0.003c3.451 4.202 9.684 4.809 13.885 1.355 4.198-3.454 4.809-9.684 1.355-13.885l-57.798-70.304c-0.003-0.003-0.007-0.007-0.010-0.010l-157.546-191.638zM327.677 446.211c-13.841 11.377-30.836 17.48-47.671 17.104-17.698-0.362-33.253-7.632-43.803-20.466-4.789-5.827-3.949-14.428 1.877-19.217l84.777-69.697c2.454-2.017 5.519-3.106 8.67-3.106 0.44 0 0.884 0.020 1.328 0.065 3.604 0.352 6.919 2.12 9.219 4.919 10.551 12.834 14.674 29.501 11.605 46.933-2.929 16.654-12.165 32.092-26.003 43.465zM326.844 386.010l-58.071 47.742c3.584 1.403 7.561 2.178 11.793 2.266 10.38 0.177 20.961-3.656 29.771-10.899 8.806-7.24 14.65-16.862 16.449-27.098 0.734-4.175 0.741-8.226 0.058-12.012zM882.104 790.593c-25.511 29.57-62.543 46.527-101.594 46.527-36.987 0-71.407-14.698-96.925-41.387-25.245-26.402-38.789-62.321-37.164-98.543 0.212-4.707 0.457-9.411 0.703-14.107 0.734-14.029 1.423-27.283 1.246-40.755-1.065-81.719-5.98-278.501-28.607-340.743-9.079-24.979-29.785-44.059-55.385-51.040l-108.66-29.635c-38.427-10.482-65.263-45.619-65.263-85.446v-24.88c0-28.512 23.197-51.705 51.705-51.705h179.070c22.436 0 44.387 4.202 65.242 12.5l58.965 20.258v-19.104c0-7.54 6.113-13.653 13.653-13.653h95.573c7.54 0 13.653 6.113 13.653 13.653l0.713 141.585c0.007 0.621-0.031 1.239-0.106 1.857-7.567 60.542-6.868 121.842 2.072 182.197l42.237 285.102c5.731 38.632-5.618 77.749-31.13 107.319zM800.058 807.977v-155.177c0-11.295-9.185-20.48-20.48-20.48s-20.48 9.185-20.48 20.48v154.894c6.96 1.399 14.121 2.12 21.408 2.12 6.618 0 13.155-0.645 19.552-1.836zM772.751 86.187v24.576c0 4.41-2.13 8.55-5.721 11.114-3.594 2.563-8.199 3.232-12.37 1.799l-77.37-26.58c-0.212-0.072-0.423-0.154-0.635-0.236-17.712-7.083-36.359-10.673-55.422-10.673h-179.070c-10.643 0-19.695 6.864-23.020 16.387h202.923c19.971 0 40.318 4.731 60.488 14.060 66.372 30.71 132.714 28.297 158.464 25.791v-56.238zM886.228 687.275l-42.237-285.102c-9.257-62.491-10.022-125.955-2.27-188.655l-0.519-43.612c-30.334 2.802-99.403 4.226-170.114-28.491-16.548-7.656-33.041-11.537-49.019-11.537h-204.302v5.588c0 27.546 18.562 51.849 45.145 59.098l108.66 29.635c34.144 9.315 61.757 34.755 73.865 68.058 23.187 63.782 28.904 246.484 30.246 349.713 0.188 14.363-0.56 28.689-1.283 42.537-0.242 4.632-0.488 9.264-0.693 13.906-1.294 28.812 9.503 57.405 29.621 78.449 8.393 8.779 18.009 15.896 28.471 21.265v-145.326c0-26.351 21.436-47.787 47.787-47.787s47.787 21.436 47.787 47.787v146.162c12.858-6.274 24.487-15.111 34.062-26.208 20.316-23.552 29.355-54.709 24.794-85.48zM779.578 591.36c-33.877 0-61.44-27.563-61.44-61.44s27.563-61.44 61.44-61.44 61.44 27.563 61.44 61.44-27.563 61.44-61.44 61.44zM779.578 495.787c-18.821 0-34.133 15.312-34.133 34.133s15.312 34.133 34.133 34.133 34.133-15.312 34.133-34.133-15.312-34.133-34.133-34.133z" />
<glyph unicode="&#xe926;" glyph-name="hat" d="M983.662 366.046l-139.92 76.32c2.699 11.305 4.251 24.286 4.258 37.629v0.005c0.004 0.393 0.006 0.857 0.006 1.321 0 22.55-4.732 43.996-13.258 63.397l0.397-1.012c-9.432 20.826-21.914 32.294-35.144 32.294-0.001 0-0.001 0-0.002 0-2.018 0-3.948-0.373-5.726-1.055l0.11 0.037-2.866-1.076c-22.425 54.886-57.925 100.519-102.75 134.49l-0.79 0.574c-48.325 36.844-109.553 59.030-175.963 59.030-0.005 0-0.009 0-0.014 0h0.001c-164.582 0-299.022-138.388-303.852-310.422l-167.8-91.532c-5.009-2.767-8.346-8.017-8.348-14.046v0c0-39.142 49.844-71.020 148.148-94.75 88.832-21.45 206.686-33.25 331.852-33.25s243.020 11.8 331.852 33.25c98.304 23.73 148.148 55.608 148.148 94.75 0 6.027-3.333 11.276-8.256 14.004l-0.082 0.042zM816 480c0-31.934-10.786-55.044-17.046-62.518l-95.096 35.66c0.066 0.948 0.142 1.894 0.142 2.858v48c0 0.964-0.076 1.91-0.142 2.858l95.096 35.66c6.26-7.474 17.046-30.584 17.046-62.518zM512 736c59.183-0.016 113.741-19.802 157.434-53.112l-0.634 0.464c40.781-30.906 72.56-71.664 92.050-118.796l0.692-1.89-72.614-27.23c-6.555 5.325-14.999 8.553-24.198 8.564h-17.454c-9.2-0.010-17.645-3.238-24.271-8.618l0.071 0.056-105.452 39.544c-1.668 0.645-3.598 1.018-5.616 1.018-0.003 0-0.006 0-0.008 0v0c-13.23 0-25.712-11.468-35.144-32.294-1.962-4.215-3.952-9.422-5.608-14.775l-0.248-0.931h-220.312c32.822 120 137.54 208 261.312 208zM672 504v-48c0.005-0.101 0.007-0.219 0.007-0.338 0-4.1-3.216-7.448-7.262-7.661l-0.019-0.001h-17.452c-4.066 0.214-7.281 3.562-7.281 7.662 0 0.119 0.003 0.237 0.008 0.355l-0.001-0.017v48c-0.005 0.101-0.007 0.219-0.007 0.338 0 4.1 3.216 7.448 7.262 7.661l0.019 0.001h17.452c4.066-0.214 7.281-3.562 7.281-7.662 0-0.119-0.003-0.237-0.008-0.355l0.001 0.017zM608.142 453.142l-95.096-35.66c-6.26 7.474-17.046 30.584-17.046 62.518s10.786 55.044 17.048 62.52l95.094-35.66c-0.066-0.948-0.142-1.894-0.142-2.86v-48c0-0.964 0.076-1.91 0.142-2.858zM464.77 464h-224.344c0.634 11.936 1.837 22.945 3.61 33.762l-0.238-1.762h220.972c-0.496-5.29-0.77-10.638-0.77-16s0.274-10.71 0.77-16zM931.6 322.3c-21.752-12.412-54.694-24.15-95.262-33.942-86.44-20.866-201.628-32.358-324.338-32.358s-237.898 11.492-324.344 32.358c-40.568 9.8-73.51 21.53-95.262 33.942-12.744 7.274-21.648 14.8-25.78 21.628l161.466 88.072h242.92c1.906-6.284 3.896-11.491 6.196-16.527l-0.336 0.821c9.428-20.826 21.91-32.294 35.14-32.294 0.001 0 0.001 0 0.002 0 2.018 0 3.948 0.373 5.726 1.055l-0.11-0.037 105.452 39.546c6.555-5.325 14.999-8.553 24.198-8.564h17.454c9.201 0.011 17.645 3.239 24.271 8.62l-0.071-0.056 105.452-39.546c1.668-0.645 3.598-1.018 5.616-1.018 0.004 0 0.007 0 0.011 0h-0.001c12.24 0 23.834 9.832 32.97 27.8l124.416-67.864c-4.132-6.828-13.036-14.362-25.786-21.636z" />
<glyph unicode="&#xe927;" glyph-name="high-heels" d="M1024 587.104c-0.12 65.924-27.773 125.366-72.069 167.458l-0.099 0.094-61.96 58.568c-2.501 2.375-5.89 3.835-9.62 3.835-3.443 0-6.596-1.244-9.032-3.308l0.020 0.017-472-397.6c-17.686-15.059-40.797-24.219-66.047-24.219-27.812 0-53.029 11.113-71.451 29.141l0.018-0.018c-2.52 2.445-5.962 3.952-9.755 3.952-3.917 0-7.459-1.607-10.003-4.198l-0.002-0.002-70-71.4c-72.358-30.491-130.028-84.035-164.991-151.277l-0.857-1.811c-3.032-4.363-5.197-9.559-6.122-15.173l-0.030-0.219c0.068-56.306 45.694-101.932 101.993-102h281.943c0.016 0 0.035 0 0.054 0 38.554 0 72.107 21.407 89.424 52.982l0.266 0.53 83.216 154.024c52.256 95.537 137.629 167.456 240.34 201.074l2.988 0.846c27.745-75.615 43.808-162.927 43.84-253.986v-141.47c0-0.002 0-0.005 0-0.008 0-7.728 6.264-13.992 13.992-13.992 0.003 0 0.006 0 0.008 0h77.936c0.002 0 0.005 0 0.008 0 7.728 0 13.992 6.264 13.992 13.992 0 0.003 0 0.006 0 0.008v0 95.304c0.023 102.155 10.335 201.889 29.956 298.237l-1.628-9.573 8.616 43.504c5.269 3.298 9.841 6.934 13.966 11.022l-0.006-0.006c14.265 14.156 23.096 33.77 23.096 55.447 0 0.079 0 0.158 0 0.237v-0.012zM449.048 145.768c-12.76-23.293-37.107-38.824-65.081-38.824-0.011 0-0.022 0-0.033 0h-281.934c-36.178 0.060-66.274 26.029-72.728 60.34l-0.072 0.46h431.704zM956.176 509.192l-5.32-26.84c-18.326-88.411-28.83-190.024-28.856-294.085v-81.323h-49.936v127.456c0 0.076 0 0.166 0 0.256 0 93.664-16.358 183.508-46.374 266.83l1.726-5.486c23.617 6.15 51.141 10.389 79.406 11.816l0.994 0.040c15.92 0.8 32.544-0.848 48.36 1.336zM981.128 551.248c-14.712-14.688-32.76-14.76-52-14.76-0.087 0-0.191 0-0.294 0-170.491 0-318.866-94.692-395.401-234.352l-1.177-2.344-56.256-104.064h-438.36c33.592 58.082 84.506 102.944 145.607 128.116l1.985 0.724c1.874 0.763 3.472 1.847 4.798 3.198l62.754 64.058c21.906-17.376 49.951-27.875 80.448-27.875 32.147 0 61.569 11.666 84.263 30.996l-0.183-0.152 462.44 389.512 52.872-49.984c39.003-37.062 63.298-89.283 63.408-147.18v-0.020c0-0.037 0-0.081 0-0.125 0-13.978-5.699-26.624-14.9-35.743l-0.004-0.004z" />
</font>
</defs>
</svg>
